<?xml version="1.0" encoding="UTF-8" standalone="no"?>
<!DOCTYPE svg PUBLIC "-//W3C//DTD SVG 1.1//EN" "http://www.w3.org/Graphics/SVG/1.1/DTD/svg11.dtd">
<svg width="100%" height="100%" viewBox="0 0 1351 416" version="1.1" xmlns="http://www.w3.org/2000/svg" xmlns:xlink="http://www.w3.org/1999/xlink" xml:space="preserve" xmlns:serif="http://www.serif.com/" style="fill-rule:evenodd;clip-rule:evenodd;stroke-linecap:square;stroke-linejoin:round;stroke-miterlimit:1.5;">
    <g id="Artboard1" transform="matrix(0.872973,0,0,0.923072,-448.57,-472.764)">
        <rect x="513.842" y="518.664" width="593.94" height="443.888" style="fill:none;"/>
        <g transform="matrix(1.14551,0,0,1.08334,-124.274,-40.4676)">
            <path d="M608.105,644.239L774.233,644.239C774.233,644.239 785.147,696.577 833.685,742.839C890.802,797.278 953.018,834.483 953.018,834.483L608.105,834.483L608.105,644.239Z" style="fill:rgb(121,206,255);"/>
        </g>
        <g transform="matrix(1.14551,0,0,1.08334,-124.274,-40.4676)">
            <g transform="matrix(1,-0,-0,1,557.057,510.119)">
                <path d="M229.058,146.98L217.175,134.121L214.018,151.342L229.058,146.98Z"/>
                <path d="M220.666,146.153C226.814,164.298 242.325,200.027 276.628,232.721C280.867,236.761 291.284,246.447 295.552,250.289" style="fill:none;stroke:black;stroke-width:4.17px;"/>
            </g>
        </g>
        <g transform="matrix(1.14551,0,0,1.08334,-124.274,-40.4676)">
            <g transform="matrix(1,-0,-0,1,557.057,510.119)">
                <path d="M306.323,249.046L289.401,244.548L295.956,260.784L306.323,249.046Z"/>
                <path d="M298.792,252.842C348.729,296.12 395.961,324.365 395.961,324.365" style="fill:none;stroke:black;stroke-width:4.17px;"/>
            </g>
        </g>
        <g transform="matrix(1.40305,0,0,1.08334,-302.098,-76.0365)">
            <g transform="matrix(0.816447,-0,-0,1,581.549,542.951)">
                <path d="M41.673,40.133L51.048,21.383L60.423,40.133L41.673,40.133Z"/>
                <path d="M51.048,366.296L51.048,36.383" style="fill:none;stroke:black;stroke-width:6.25px;"/>
            </g>
        </g>
        <g transform="matrix(8.59117e-17,1.08334,-1.40305,6.63354e-17,1848.03,233.82)">
            <g transform="matrix(4.99929e-17,-0.816447,1,6.12323e-17,256.931,950.925)">
                <path d="M454.754,356.921L473.504,366.296L454.754,375.671L454.754,356.921Z"/>
                <path d="M51.048,366.296L458.504,366.296" style="fill:none;stroke:black;stroke-width:6.25px;"/>
            </g>
        </g>
        <g transform="matrix(1.14551,0,0,1.08334,-124.274,-38.0983)">
            <path d="M685.42,580.04C685.42,580.04 695.244,654.577 780.562,731.059C865.879,807.541 953.018,832.296 953.018,832.296" style="fill:none;stroke:rgb(69,69,69);stroke-width:4.17px;"/>
        </g>
        <g transform="matrix(1.14551,0,0,1.08334,-124.274,-40.4676)">
            <path d="M858.35,582.227C858.35,582.227 862.905,618.781 888.456,691.743C914.007,764.705 953.018,834.483 953.018,834.483" style="fill:none;stroke:rgb(69,69,69);stroke-width:4.17px;"/>
        </g>
        <g transform="matrix(1.14551,0,0,1.08334,-56.0473,-63.0008)">
            <text x="504.34px" y="574.689px" style="font-family:'ArialMT', 'Arial', sans-serif;font-size:41.667px;">p</text>
        </g>
        <g transform="matrix(1.14551,0,0,1.08334,451.893,332.012)">
            <text x="504.34px" y="574.689px" style="font-family:'ArialMT', 'Arial', sans-serif;font-size:41.667px;">v</text>
        </g>
        <g transform="matrix(1.14551,0,0,1.08334,326.561,47.0818)">
            <text x="504.34px" y="574.689px" style="font-family:'ArialMT', 'Arial', sans-serif;font-size:41.667px;">izentrópa</text>
        </g>
        <g transform="matrix(1.14551,0,0,1.08334,25.8631,-52.2624)">
            <text x="504.34px" y="574.689px" style="font-family:'ArialMT', 'Arial', sans-serif;font-size:41.667px;">izoterma</text>
        </g>
        <g transform="matrix(1.14551,0,0,1.08334,71.5567,158.973)">
            <text x="504.34px" y="574.689px" style="font-family:'ArialMT', 'Arial', sans-serif;font-size:41.667px;">Y</text>
        </g>
        <g transform="matrix(1.14551,0,0,1.08334,97.9554,175.119)">
            <text x="504.34px" y="565.735px" style="font-family:'ArialMT', 'Arial', sans-serif;font-size:29.167px;">p</text>
        </g>
        <g transform="matrix(1.14551,0,0,1.08334,400.842,232.557)">
            <text x="504.34px" y="574.689px" style="font-family:'ArialMT', 'Arial', sans-serif;font-size:41.667px;">1</text>
        </g>
        <g transform="matrix(1.14551,0,0,1.08334,205.389,27.8914)">
            <text x="504.34px" y="574.689px" style="font-family:'ArialMT', 'Arial', sans-serif;font-size:41.667px;">2</text>
        </g>
        <g transform="matrix(1.14551,0,0,1.08334,-509.175,-137.128)">
            <circle cx="1109.71" cy="733.691" r="9.148"/>
        </g>
        <g transform="matrix(1.14551,0,0,1.08334,-304.324,69.4364)">
            <circle cx="1109.71" cy="733.691" r="9.148"/>
        </g>
    </g>
    <g id="Artboard2" transform="matrix(1,0,0,1,-0.20183,5.43664)">
        <rect x="885.202" y="-5.437" width="465.118" height="409.702" style="fill:none;"/>
        <g transform="matrix(1.21489,0,0,1.08084,-948.438,-616.268)">
            <path d="M1643.13,903.515L1643.13,859.173C1643.13,859.173 1686.85,828.221 1717.35,755.187C1747.84,682.153 1755.59,630.228 1755.59,630.228L1755.59,903.515L1643.13,903.515Z" style="fill:rgb(121,206,255);"/>
        </g>
        <g transform="matrix(1.18204,0,0,1,198.494,-548.964)">
            <g transform="matrix(0.845998,-0,-0,1,-167.755,543.528)">
                <path d="M925.595,39.557L934.97,20.807L944.345,39.557L925.595,39.557Z"/>
                <path d="M934.97,365.719L934.97,35.807" style="fill:none;stroke:black;stroke-width:6.25px;"/>
            </g>
        </g>
        <g transform="matrix(7.23788e-17,1,-1.18204,6.12323e-17,2009.93,-262.944)">
            <g transform="matrix(5.18024e-17,-0.845998,1,6.12323e-17,257.508,1700.23)">
                <path d="M1323.92,356.344L1342.67,365.719L1323.92,375.094L1323.92,356.344Z"/>
                <path d="M934.97,365.719L1327.67,365.719" style="fill:none;stroke:black;stroke-width:6.25px;"/>
            </g>
        </g>
        <g transform="matrix(1,0,0,1,388.577,-534.569)">
            <text x="504.34px" y="574.689px" style="font-family:'ArialMT', 'Arial', sans-serif;font-size:41.667px;">T</text>
        </g>
        <g transform="matrix(1,0,0,1,816.986,-176.505)">
            <text x="504.34px" y="574.689px" style="font-family:'ArialMT', 'Arial', sans-serif;font-size:41.667px;">s</text>
        </g>
        <g transform="matrix(1,0,0,1,764.497,-385.19)">
            <text x="504.34px" y="574.689px" style="font-family:'ArialMT', 'Arial', sans-serif;font-size:41.667px;">p</text>
        </g>
        <g transform="matrix(1,0,0,1,785.803,-354.625)">
            <text x="504.34px" y="565.735px" style="font-family:'ArialMT', 'Arial', sans-serif;font-size:29.167px;">1</text>
        </g>
        <g transform="matrix(1,0,0,1,724.316,-523.522)">
            <text x="504.34px" y="574.689px" style="font-family:'ArialMT', 'Arial', sans-serif;font-size:41.667px;">p</text>
        </g>
        <g transform="matrix(1,0,0,1,745.621,-492.957)">
            <text x="504.34px" y="565.735px" style="font-family:'ArialMT', 'Arial', sans-serif;font-size:29.167px;">2</text>
        </g>
        <g transform="matrix(1,0,0,1,510.277,-272.21)">
            <text x="504.34px" y="574.689px" style="font-family:'ArialMT', 'Arial', sans-serif;font-size:41.667px;">1</text>
        </g>
        <g transform="matrix(1,0,0,1,650.093,-519.877)">
            <text x="504.34px" y="574.689px" style="font-family:'ArialMT', 'Arial', sans-serif;font-size:41.667px;">2</text>
        </g>
        <g transform="matrix(1,0,0,1,75.5005,-668.545)">
            <circle cx="1109.71" cy="733.691" r="9.148"/>
        </g>
        <g transform="matrix(1,0,0,1,-63.7015,-419.809)">
            <circle cx="1109.71" cy="733.691" r="9.148"/>
        </g>
        <g transform="matrix(1.21489,0,0,1.08084,-951.197,-613.241)">
            <g transform="matrix(0.823117,-0,-0,0.92521,783.112,562.347)">
                <path d="M1123.9,216.924L1134.99,208.429L1135.13,222.404L1123.9,216.924Z"/>
                <path d="M1044.83,320.82C1044.83,320.82 1093.9,289.914 1130.61,217.417" style="fill:none;stroke:black;stroke-width:4.17px;"/>
            </g>
        </g>
        <g transform="matrix(1.21489,0,0,1.08084,-951.197,-613.241)">
            <g transform="matrix(0.823117,-0,-0,0.92521,783.112,562.347)">
                <path d="M1172.58,84.162L1181.45,73.369L1184.76,86.947L1172.58,84.162Z"/>
                <path d="M1131.43,216.673C1159.89,156.027 1174.15,103.981 1179.23,83.118" style="fill:none;stroke:black;stroke-width:4.17px;"/>
            </g>
        </g>
        <g transform="matrix(1,0,0,1,-595.827,-543.232)">
            <path d="M1576.65,731.467C1576.65,731.467 1645.54,718.105 1707.12,673.253C1768.69,628.401 1818.57,562.576 1818.57,562.576" style="fill:none;stroke:rgb(69,69,69);stroke-width:4.17px;"/>
        </g>
        <g transform="matrix(1,0,0,1,-556.884,-410.099)">
            <path d="M1576.65,731.467C1576.65,731.467 1645.54,718.105 1707.12,673.253C1768.69,628.401 1818.57,562.576 1818.57,562.576" style="fill:none;stroke:rgb(69,69,69);stroke-width:4.17px;"/>
        </g>
        <g transform="matrix(1,0,0,1,602.155,-238.652)">
            <text x="504.34px" y="574.689px" style="font-family:'ArialMT', 'Arial', sans-serif;font-size:41.667px;">Q</text>
        </g>
    </g>
</svg>
