<?xml version="1.0" encoding="UTF-8" standalone="no"?>
<!-- Created with Inkscape (http://www.inkscape.org/) -->

<svg
   xmlns:dc="http://purl.org/dc/elements/1.1/"
   xmlns:cc="http://creativecommons.org/ns#"
   xmlns:rdf="http://www.w3.org/1999/02/22-rdf-syntax-ns#"
   xmlns:svg="http://www.w3.org/2000/svg"
   xmlns="http://www.w3.org/2000/svg"
   xmlns:sodipodi="http://sodipodi.sourceforge.net/DTD/sodipodi-0.dtd"
   xmlns:inkscape="http://www.inkscape.org/namespaces/inkscape"
   width="70mm"
   height="70mm"
   viewBox="0 0 248.0315 248.0315"
   id="svg2"
   version="1.1"
   inkscape:version="0.91 r13725"
   sodipodi:docname="HeadCurves_PS.svg">
  <defs
     id="defs4">
    <marker
       inkscape:stockid="DotM"
       orient="auto"
       refY="0"
       refX="0"
       id="marker4788"
       style="overflow:visible"
       inkscape:isstock="true">
      <path
         id="path4790"
         d="m -2.5,-1 c 0,2.76 -2.24,5 -5,5 -2.76,0 -5,-2.24 -5,-5 0,-2.76 2.24,-5 5,-5 2.76,0 5,2.24 5,5 z"
         style="fill:#000000;fill-opacity:1;fill-rule:evenodd;stroke:#000000;stroke-width:1pt;stroke-opacity:1"
         transform="matrix(0.4,0,0,0.4,2.96,0.4)"
         inkscape:connector-curvature="0" />
    </marker>
    <marker
       inkscape:isstock="true"
       style="overflow:visible"
       id="marker4688"
       refX="0"
       refY="0"
       orient="auto"
       inkscape:stockid="DotM">
      <path
         inkscape:connector-curvature="0"
         transform="matrix(0.4,0,0,0.4,2.96,0.4)"
         style="fill:#000000;fill-opacity:1;fill-rule:evenodd;stroke:#000000;stroke-width:1pt;stroke-opacity:1"
         d="m -2.5,-1 c 0,2.76 -2.24,5 -5,5 -2.76,0 -5,-2.24 -5,-5 0,-2.76 2.24,-5 5,-5 2.76,0 5,2.24 5,5 z"
         id="path4690" />
    </marker>
    <marker
       inkscape:stockid="DotM"
       orient="auto"
       refY="0.0"
       refX="0.0"
       id="DotM"
       style="overflow:visible"
       inkscape:isstock="true">
      <path
         id="path4377"
         d="M -2.5,-1.0 C -2.5,1.7600000 -4.7400000,4.0 -7.5,4.0 C -10.260000,4.0 -12.5,1.7600000 -12.5,-1.0 C -12.5,-3.7600000 -10.260000,-6.0 -7.5,-6.0 C -4.7400000,-6.0 -2.5,-3.7600000 -2.5,-1.0 z "
         style="fill-rule:evenodd;stroke:#000000;stroke-width:1.0pt"
         transform="scale(0.4) translate(7.4, 1)" />
    </marker>
    <marker
       inkscape:isstock="true"
       style="overflow:visible"
       id="marker4816"
       refX="0"
       refY="0"
       orient="auto"
       inkscape:stockid="DotM"
       inkscape:collect="always">
      <path
         inkscape:connector-curvature="0"
         transform="matrix(0.4,0,0,0.4,2.96,0.4)"
         style="fill:#000000;fill-opacity:1;fill-rule:evenodd;stroke:#000000;stroke-width:1pt;stroke-opacity:1"
         d="m -2.5,-1 c 0,2.76 -2.24,5 -5,5 -2.76,0 -5,-2.24 -5,-5 0,-2.76 2.24,-5 5,-5 2.76,0 5,2.24 5,5 z"
         id="path4818" />
    </marker>
    <marker
       inkscape:isstock="true"
       style="overflow:visible"
       id="marker4601"
       refX="0"
       refY="0"
       orient="auto"
       inkscape:stockid="DotM">
      <path
         transform="matrix(0.4,0,0,0.4,2.96,0.4)"
         style="fill:#000000;fill-opacity:1;fill-rule:evenodd;stroke:#000000;stroke-width:1pt;stroke-opacity:1"
         d="m -2.5,-1 c 0,2.76 -2.24,5 -5,5 -2.76,0 -5,-2.24 -5,-5 0,-2.76 2.24,-5 5,-5 2.76,0 5,2.24 5,5 z"
         id="path4603"
         inkscape:connector-curvature="0" />
    </marker>
    <marker
       inkscape:stockid="DotM"
       orient="auto"
       refY="0"
       refX="0"
       id="marker4543"
       style="overflow:visible"
       inkscape:isstock="true"
       inkscape:collect="always">
      <path
         id="path4545"
         d="m -2.5,-1 c 0,2.76 -2.24,5 -5,5 -2.76,0 -5,-2.24 -5,-5 0,-2.76 2.24,-5 5,-5 2.76,0 5,2.24 5,5 z"
         style="fill:#000000;fill-opacity:1;fill-rule:evenodd;stroke:#000000;stroke-width:1pt;stroke-opacity:1"
         transform="matrix(0.4,0,0,0.4,2.96,0.4)"
         inkscape:connector-curvature="0" />
    </marker>
    <marker
       inkscape:stockid="DotL"
       orient="auto"
       refY="0"
       refX="0"
       id="DotL"
       style="overflow:visible"
       inkscape:isstock="true">
      <path
         id="path4278"
         d="m -2.5,-1 c 0,2.76 -2.24,5 -5,5 -2.76,0 -5,-2.24 -5,-5 0,-2.76 2.24,-5 5,-5 2.76,0 5,2.24 5,5 z"
         style="fill:#000000;fill-opacity:1;fill-rule:evenodd;stroke:#000000;stroke-width:1pt;stroke-opacity:1"
         transform="matrix(0.8,0,0,0.8,5.92,0.8)"
         inkscape:connector-curvature="0" />
    </marker>
    <marker
       style="overflow:visible"
       id="Arrow1Lstart"
       refX="0"
       refY="0"
       orient="auto"
       inkscape:stockid="Arrow1Lstart">
      <path
         transform="matrix(0.8,0,0,0.8,10,0)"
         style="fill-rule:evenodd;stroke:#000000;stroke-width:1pt;marker-start:none"
         d="M 0,0 5,-5 -12.5,0 5,5 0,0 Z"
         id="path3895"
         inkscape:connector-curvature="0" />
    </marker>
    <marker
       style="overflow:visible"
       id="Arrow1Lend"
       refX="0"
       refY="0"
       orient="auto"
       inkscape:stockid="Arrow1Lend">
      <path
         transform="matrix(-0.8,0,0,-0.8,-10,0)"
         style="fill-rule:evenodd;stroke:#000000;stroke-width:1pt;marker-start:none"
         d="M 0,0 5,-5 -12.5,0 5,5 0,0 Z"
         id="path3898"
         inkscape:connector-curvature="0" />
    </marker>
    <marker
       inkscape:stockid="DotM"
       orient="auto"
       refY="0"
       refX="0"
       id="DotM-4"
       style="overflow:visible"
       inkscape:isstock="true">
      <path
         inkscape:connector-curvature="0"
         id="path4281-6"
         d="m -2.5,-1 c 0,2.76 -2.24,5 -5,5 -2.76,0 -5,-2.24 -5,-5 0,-2.76 2.24,-5 5,-5 2.76,0 5,2.24 5,5 z"
         style="fill:#000000;fill-opacity:1;fill-rule:evenodd;stroke:#000000;stroke-width:1pt;stroke-opacity:1"
         transform="matrix(0.4,0,0,0.4,2.96,0.4)" />
    </marker>
    <marker
       inkscape:stockid="DotM"
       orient="auto"
       refY="0"
       refX="0"
       id="marker4543-6"
       style="overflow:visible"
       inkscape:isstock="true">
      <path
         inkscape:connector-curvature="0"
         id="path4545-3"
         d="m -2.5,-1 c 0,2.76 -2.24,5 -5,5 -2.76,0 -5,-2.24 -5,-5 0,-2.76 2.24,-5 5,-5 2.76,0 5,2.24 5,5 z"
         style="fill:#000000;fill-opacity:1;fill-rule:evenodd;stroke:#000000;stroke-width:1pt;stroke-opacity:1"
         transform="matrix(0.4,0,0,0.4,2.96,0.4)" />
    </marker>
    <marker
       style="overflow:visible"
       id="Arrow1Lend-9"
       refX="0"
       refY="0"
       orient="auto"
       inkscape:stockid="Arrow1Lend">
      <path
         transform="matrix(-0.8,0,0,-0.8,-10,0)"
         style="fill-rule:evenodd;stroke:#000000;stroke-width:1pt;marker-start:none"
         d="M 0,0 5,-5 -12.5,0 5,5 0,0 Z"
         id="path3898-1"
         inkscape:connector-curvature="0" />
    </marker>
  </defs>
  <sodipodi:namedview
     id="base"
     pagecolor="#ffffff"
     bordercolor="#666666"
     borderopacity="1.0"
     inkscape:pageopacity="0.0"
     inkscape:pageshadow="2"
     inkscape:zoom="2.8"
     inkscape:cx="-2.4409896"
     inkscape:cy="121.26579"
     inkscape:document-units="px"
     inkscape:current-layer="layer1-3"
     showgrid="false"
     inkscape:window-width="1920"
     inkscape:window-height="1017"
     inkscape:window-x="-8"
     inkscape:window-y="-8"
     inkscape:window-maximized="1" />
  <metadata
     id="metadata7">
    <rdf:RDF>
      <cc:Work
         rdf:about="">
        <dc:format>image/svg+xml</dc:format>
        <dc:type
           rdf:resource="http://purl.org/dc/dcmitype/StillImage" />
        <dc:title />
      </cc:Work>
    </rdf:RDF>
  </metadata>
  <g
     inkscape:label="1. réteg"
     inkscape:groupmode="layer"
     id="layer1"
     transform="translate(0,-804.33071)">
    <g
       transform="translate(-3.3382273,-35.276944)"
       id="layer1-3"
       inkscape:label="1. réteg"
       style="stroke-width:1.25;stroke-miterlimit:4;stroke-dasharray:none">
      <path
         id="path2997"
         d="m 15.869554,890.11931 0,173.93179 225.010186,0"
         style="fill:none;stroke:#000000;stroke-width:1.25;stroke-linecap:round;stroke-linejoin:miter;stroke-miterlimit:4;stroke-dasharray:none;marker-start:none;marker-end:none"
         inkscape:connector-curvature="0" />
      <path
         id="path3025"
         d="m 15.932283,1043.2829 0.0141,0 0.05641,0 0.08478,0 0.141026,0 0.211711,0 0.282055,0 0.324532,-0.029 0.380942,-0.029 0.451627,-0.03 0.493766,-0.029 0.522139,-0.029 0.564278,-0.029 0.578551,-0.029 0.578551,-0.056 0.578381,-0.055 0.578552,-0.055 0.57855,-0.029 0.564279,-0.085 0.536243,-0.085 0.550175,-0.029 0.52214,-0.1123 0.493765,-0.085 0.508038,-0.057 0.493764,-0.1123 0.493935,-0.085 0.479662,-0.1407 0.493765,-0.085 0.493935,-0.1124 0.507867,-0.1689 0.522141,-0.141 0.536072,-0.1409 0.395216,-0.1409 0.423251,-0.1123 0.423251,-0.1408 0.437354,-0.1411 0.451627,-0.1689 0.451457,-0.1408 0.479662,-0.1689 0.493935,-0.1689 0.493764,-0.1693 0.493934,-0.1972 0.521971,-0.1971 0.536243,-0.1974 0.536073,-0.2253 0.564448,-0.2253 0.550176,-0.2256 0.578552,-0.2533 0.578549,-0.2253 0.578382,-0.2537 0.606756,-0.2816 0.592654,-0.2534 0.606757,-0.2819 0.620688,-0.2815 0.606759,-0.2819 0.606755,-0.2816 0.606755,-0.2816 0.606756,-0.3382 0.620691,-0.2815 0.606756,-0.3101 0.592652,-0.3099 0.606589,-0.2817 0.592651,-0.338 0.57855,-0.3099 0.578553,-0.3381 0.564278,-0.3099 0.564445,-0.3097 0.564282,-0.3379 0.550343,-0.31 0.550347,-0.3099 0.536071,-0.338 0.55035,-0.338 0.521972,-0.3101 0.536237,-0.3659 0.493764,-0.3101 0.50804,-0.3379 0.50787,-0.3382 0.493933,-0.3378 0.493765,-0.3665 0.52214,-0.3377 0.50787,-0.3665 0.52214,-0.3943 0.521967,-0.3944 0.522145,-0.3945 0.536068,-0.3943 0.52214,-0.4508 0.536073,-0.4224 0.550346,-0.4507 0.536073,-0.4509 0.550346,-0.4786 0.550347,-0.5073 0.550174,-0.4789 0.564452,-0.5069 0.550174,-0.5071 0.550346,-0.5071 0.564447,-0.5635 0.536074,-0.5354 0.564443,-0.5631 0.550178,-0.5635 0.536246,-0.5635 0.550342,-0.5635 0.536076,-0.5915 0.522141,-0.5916 0.536072,-0.5912 0.52214,-0.5917 0.50787,-0.6199 0.508038,-0.6197 0.507863,-0.6198 0.493765,-0.6197 0.493933,-0.6198 0.479659,-0.5916 0.479836,-0.648 0.465559,-0.6475 0.479661,-0.6479 0.465729,-0.62 0.45146,-0.676 0.465553,-0.676 0.465737,-0.6479 0.409148,-0.648 0.423254,-0.6481 0.423248,-0.6479 0.423418,-0.676 0.423254,-0.7042 0.423248,-0.6762 0.451461,-0.7325 0.423418,-0.7605 0.465559,-0.7887 0.451453,-0.7887 0.479836,-0.8173 0.479666,-0.90121 0.493758,-0.8731 0.522141,-0.95799 0.536248,-0.98593 0.536077,-0.98582 0.564439,-1.07053 0.578389,-1.09877 0.592645,-1.15482 0.606757,-1.18317 0.620864,-1.18333 0.648893,-1.26771 0.649063,-1.2955 0.663163,-1.32414 0.677268,-1.324 0.677276,-1.35222 0.691375,-1.35207 0.663162,-1.35223 0.677268,-1.35222 0.649063,-1.324 0.649064,-1.2677 0.606769,-1.23961 0.592476,-1.1829 0.536245,-1.12688 0.50787,-1.04218 0.46573,-0.92984 0.423247,-0.84503 0.366839,-0.76056 0.31043,-0.64795 0.268118,-0.53528 0.211539,-0.45086 0.183513,-0.33788 0.112818,-0.28157 0.08466,-0.16928 0.0707,-0.1126 0.02816,-0.0563 0,-0.0281"
         style="fill:none;stroke:#000000;stroke-width:1.25;stroke-linecap:round;stroke-linejoin:miter;stroke-miterlimit:4;stroke-dasharray:none"
         inkscape:connector-curvature="0" />
      <text
         sodipodi:linespacing="125%"
         id="text4704"
         y="1076.6589"
         x="234.49101"
         style="font-style:normal;font-variant:normal;font-weight:normal;font-stretch:normal;font-size:11px;line-height:125%;font-family:'Times New Roman';-inkscape-font-specification:'Times New Roman,';text-align:start;letter-spacing:0px;word-spacing:0px;writing-mode:lr-tb;text-anchor:start;fill:#000000;fill-opacity:1;stroke:none;stroke-width:1.25;stroke-miterlimit:4;stroke-dasharray:none"
         xml:space="preserve"><tspan
           y="1076.6589"
           x="234.49101"
           id="tspan4706"
           sodipodi:role="line">Q</tspan></text>
      <text
         sodipodi:linespacing="125%"
         id="text4708"
         y="897.96832"
         x="23.054564"
         style="font-style:normal;font-variant:normal;font-weight:normal;font-stretch:normal;font-size:11px;line-height:125%;font-family:'Times New Roman';-inkscape-font-specification:'Times New Roman,';text-align:start;letter-spacing:0px;word-spacing:0px;writing-mode:lr-tb;text-anchor:start;fill:#000000;fill-opacity:1;stroke:none;stroke-width:1.25;stroke-miterlimit:4;stroke-dasharray:none"
         xml:space="preserve"><tspan
           y="897.96832"
           x="23.054564"
           id="tspan4710"
           sodipodi:role="line">H</tspan></text>
      <text
         sodipodi:linespacing="125%"
         id="text4720"
         y="821.15778"
         x="227.28432"
         style="font-style:normal;font-variant:normal;font-weight:normal;font-stretch:normal;font-size:11px;line-height:125%;font-family:'Times New Roman';-inkscape-font-specification:'Times New Roman,';text-align:start;letter-spacing:0px;word-spacing:0px;writing-mode:lr-tb;text-anchor:start;fill:#000000;fill-opacity:1;stroke:none;stroke-width:1.25;stroke-miterlimit:4;stroke-dasharray:none"
         xml:space="preserve"><tspan
           y="821.15778"
           x="227.28432"
           id="tspan4722"
           sodipodi:role="line" /></text>
      <text
         sodipodi:linespacing="125%"
         id="text4726"
         y="867.0838"
         x="127.1507"
         style="font-style:normal;font-variant:normal;font-weight:normal;font-stretch:normal;font-size:11px;line-height:125%;font-family:'Times New Roman';-inkscape-font-specification:'Times New Roman,';text-align:start;letter-spacing:0px;word-spacing:0px;writing-mode:lr-tb;text-anchor:start;fill:#000000;fill-opacity:1;stroke:none;stroke-width:1.25;stroke-miterlimit:4;stroke-dasharray:none"
         xml:space="preserve"><tspan
           y="867.0838"
           x="127.1507"
           id="tspan4728"
           sodipodi:role="line">H<tspan
   style="font-size:64.99999762%;baseline-shift:sub;stroke-width:1.25;stroke-miterlimit:4;stroke-dasharray:none"
   id="tspan4224">s,1</tspan></tspan></text>
      <path
         inkscape:connector-curvature="0"
         id="path5120"
         d="m 240.87974,1064.0511 -6.1932,0"
         style="fill:none;fill-opacity:1;stroke:#000000;stroke-width:1.25;stroke-linecap:round;stroke-linejoin:miter;stroke-miterlimit:4;stroke-dasharray:none;stroke-dashoffset:0;stroke-opacity:1;marker-start:url(#Arrow1Lstart)" />
      <path
         style="fill:none;stroke:#000000;stroke-width:1.25;stroke-linecap:round;stroke-linejoin:miter;stroke-miterlimit:4;stroke-dasharray:none;stroke-dashoffset:0;stroke-opacity:1;marker-start:url(#Arrow1Lstart)"
         d="m 15.869554,890.11931 0,6.19321"
         id="path5306"
         inkscape:connector-curvature="0" />
      <text
         sodipodi:linespacing="125%"
         id="text4726-8"
         y="915.80743"
         x="127.67278"
         style="font-style:normal;font-variant:normal;font-weight:normal;font-stretch:normal;font-size:11px;line-height:125%;font-family:'Times New Roman';-inkscape-font-specification:'Times New Roman,';text-align:start;letter-spacing:0px;word-spacing:0px;writing-mode:lr-tb;text-anchor:start;fill:#000000;fill-opacity:1;stroke:none;stroke-width:1.25;stroke-miterlimit:4;stroke-dasharray:none"
         xml:space="preserve"><tspan
           y="915.80743"
           x="127.67278"
           id="tspan4728-9"
           sodipodi:role="line">H<tspan
   style="font-size:64.99999762%;baseline-shift:sub;stroke-width:1.25;stroke-miterlimit:4;stroke-dasharray:none"
   id="tspan4224-1">s,2</tspan></tspan></text>
      <text
         sodipodi:linespacing="125%"
         id="text4726-2"
         y="961.30664"
         x="86.894585"
         style="font-style:normal;font-variant:normal;font-weight:normal;font-stretch:normal;font-size:11px;line-height:125%;font-family:'Times New Roman';-inkscape-font-specification:'Times New Roman,';text-align:start;letter-spacing:0px;word-spacing:0px;writing-mode:lr-tb;text-anchor:start;fill:#000000;fill-opacity:1;stroke:none;stroke-width:1.25;stroke-miterlimit:4;stroke-dasharray:none"
         xml:space="preserve"><tspan
           y="961.30664"
           x="86.894585"
           id="tspan4728-1"
           sodipodi:role="line">H<tspan
   style="font-size:64.99999762%;baseline-shift:sub;stroke-width:1.25;stroke-miterlimit:4;stroke-dasharray:none"
   id="tspan4224-0">s,1</tspan></tspan></text>
      <text
         sodipodi:linespacing="125%"
         id="text4726-8-1"
         y="961.30664"
         x="135.63229"
         style="font-style:normal;font-variant:normal;font-weight:normal;font-stretch:normal;font-size:11px;line-height:125%;font-family:'Times New Roman';-inkscape-font-specification:'Times New Roman,';text-align:start;letter-spacing:0px;word-spacing:0px;writing-mode:lr-tb;text-anchor:start;fill:#000000;fill-opacity:1;stroke:none;stroke-width:1.25;stroke-miterlimit:4;stroke-dasharray:none"
         xml:space="preserve"><tspan
           y="961.30664"
           x="135.63229"
           id="tspan4728-9-0"
           sodipodi:role="line">H<tspan
   style="font-size:64.99999762%;baseline-shift:sub;stroke-width:1.25;stroke-miterlimit:4;stroke-dasharray:none"
   id="tspan4224-1-8">s,2</tspan></tspan></text>
      <text
         sodipodi:linespacing="125%"
         id="text4726-8-7"
         y="961.30664"
         x="209.10349"
         style="font-style:normal;font-variant:normal;font-weight:normal;font-stretch:normal;font-size:11px;line-height:125%;font-family:'Times New Roman';-inkscape-font-specification:'Times New Roman,';text-align:start;letter-spacing:0px;word-spacing:0px;writing-mode:lr-tb;text-anchor:start;fill:#000000;fill-opacity:1;stroke:none;stroke-width:1.25;stroke-miterlimit:4;stroke-dasharray:none"
         xml:space="preserve"><tspan
           y="961.30664"
           x="209.10349"
           id="tspan4728-9-5"
           sodipodi:role="line">H<tspan
   style="font-size:64.99999762%;baseline-shift:sub;stroke-width:1.25;stroke-miterlimit:4;stroke-dasharray:none"
   id="tspan5058">s,1+2</tspan></tspan></text>
      <text
         sodipodi:linespacing="125%"
         id="text4726-8-1-9"
         y="887.34149"
         x="75.160339"
         style="font-style:normal;font-variant:normal;font-weight:normal;font-stretch:normal;font-size:11px;line-height:125%;font-family:'Times New Roman';-inkscape-font-specification:'Times New Roman,';text-align:start;letter-spacing:0px;word-spacing:0px;writing-mode:lr-tb;text-anchor:start;fill:#000000;fill-opacity:1;stroke:none;stroke-width:1.25;stroke-miterlimit:4;stroke-dasharray:none"
         xml:space="preserve"><tspan
           y="887.34149"
           x="75.160339"
           id="tspan4728-9-0-7"
           sodipodi:role="line">p<tspan
   style="font-size:64.99999762%;baseline-shift:sub;stroke-width:1.25;stroke-miterlimit:4;stroke-dasharray:none"
   id="tspan4224-1-8-8">1</tspan></tspan></text>
      <text
         sodipodi:linespacing="125%"
         id="text4726-8-1-9-6"
         y="887.00378"
         x="179.83174"
         style="font-style:normal;font-variant:normal;font-weight:normal;font-stretch:normal;font-size:11px;line-height:125%;font-family:'Times New Roman';-inkscape-font-specification:'Times New Roman,';text-align:start;letter-spacing:0px;word-spacing:0px;writing-mode:lr-tb;text-anchor:start;fill:#000000;fill-opacity:1;stroke:none;stroke-width:1.25;stroke-miterlimit:4;stroke-dasharray:none"
         xml:space="preserve"><tspan
           y="887.00378"
           x="179.83174"
           id="tspan4728-9-0-7-0"
           sodipodi:role="line">p<tspan
   style="font-size:64.99999762%;baseline-shift:sub;stroke-width:1.25;stroke-miterlimit:4;stroke-dasharray:none"
   id="tspan4224-1-8-8-1">2</tspan></tspan></text>
      <path
         style="opacity:1;fill:none;fill-opacity:1;stroke:#000000;stroke-width:1;stroke-miterlimit:4;stroke-dasharray:none;stroke-dashoffset:0;stroke-opacity:1;marker-start:url(#marker4543);marker-end:url(#marker4816)"
         id="path4659"
         sodipodi:type="arc"
         sodipodi:cx="130.77232"
         sodipodi:cy="895.49225"
         sodipodi:rx="35.844734"
         sodipodi:ry="22.753723"
         sodipodi:start="3.5038562"
         sodipodi:end="5.9276268"
         d="m 97.254019,887.42852 a 35.844734,22.753723 0 0 1 33.638471,-14.68987 35.844734,22.753723 0 0 1 33.48256,14.83271"
         sodipodi:open="true" />
      <path
         style="opacity:1;fill:none;fill-opacity:1;stroke:#000000;stroke-width:1;stroke-miterlimit:4;stroke-dasharray:none;stroke-dashoffset:0;stroke-opacity:1;marker-start:url(#marker4688);marker-end:url(#marker4788)"
         id="path4659-3"
         sodipodi:type="arc"
         sodipodi:cx="130.74922"
         sodipodi:cy="-878.98212"
         sodipodi:rx="35.844734"
         sodipodi:ry="22.753723"
         sodipodi:start="3.5038562"
         sodipodi:end="5.9276268"
         d="m 97.230917,-887.04585 a 35.844734,22.753723 0 0 1 33.638473,-14.68986 35.844734,22.753723 0 0 1 33.48256,14.8327"
         sodipodi:open="true"
         transform="scale(1,-1)" />
      <path
         id="path3025-0"
         d="m 15.639609,1055.3814 0.02168,0 0.08674,0 0.130378,0 0.216861,0 0.325553,0 0.433723,0 0.499042,-0.033 0.585786,-0.033 0.69448,-0.034 0.759276,-0.033 0.802909,-0.033 0.867705,-0.033 0.889654,-0.033 0.889654,-0.067 0.889392,-0.065 0.889655,-0.065 0.889653,-0.033 0.867707,-0.099 0.824596,-0.1002 0.846019,-0.033 0.802909,-0.1314 0.759276,-0.099 0.781223,-0.068 0.759276,-0.1312 0.759537,-0.099 0.737589,-0.1643 0.759276,-0.099 0.759537,-0.1312 0.780968,-0.1974 0.802901,-0.1648 0.82434,-0.1646 0.607729,-0.1645 0.650849,-0.1313 0.65084,-0.1646 0.672532,-0.1648 0.694484,-0.1975 0.694212,-0.1643 0.737596,-0.1975 0.759537,-0.1973 0.759276,-0.1978 0.759524,-0.2304 0.802649,-0.2304 0.824602,-0.2306 0.82433,-0.2631 0.867964,-0.2634 0.846021,-0.2635 0.889656,-0.2961 0.889656,-0.2632 0.889394,-0.2965 0.933028,-0.329 0.911336,-0.296 0.933029,-0.3295 0.954448,-0.3289 0.933028,-0.3294 0.933029,-0.329 0.933016,-0.3291 0.933029,-0.3952 0.954457,-0.3289 0.933019,-0.3623 0.911336,-0.362 0.932777,-0.3292 0.911337,-0.3949 0.889645,-0.3622 0.889656,-0.3949 0.867713,-0.3622 0.867964,-0.3619 0.867702,-0.3947 0.846284,-0.3623 0.846283,-0.3621 0.82433,-0.3951 0.846294,-0.3948 0.802649,-0.3622 0.82458,-0.4278 0.759277,-0.3622 0.781229,-0.3947 0.780968,-0.3953 0.759528,-0.3946 0.759276,-0.4282 0.802911,-0.3948 0.780968,-0.4282 0.80291,-0.4607 0.802638,-0.4609 0.802921,-0.4608 0.824331,-0.4608 0.8029,-0.5266 0.82434,-0.4936 0.846283,-0.5267 0.82433,-0.5268 0.846286,-0.5592 0.846282,-0.5928 0.84602,-0.5596 0.867979,-0.5922 0.846004,-0.5926 0.846283,-0.5925 0.867969,-0.6584 0.824342,-0.6256 0.867953,-0.658 0.84603,-0.6583 0.824594,-0.6584 0.846289,-0.6585 0.824339,-0.6912 0.802902,-0.6912 0.824339,-0.6909 0.802903,-0.6912 0.780967,-0.7243 0.781226,-0.7243 0.780958,-0.7241 0.759271,-0.7241 0.75953,-0.7243 0.7376,-0.6911 0.73785,-0.7571 0.71589,-0.7568 0.7376,-0.757 0.71617,-0.7243 0.69422,-0.79 0.71589,-0.7899 0.71618,-0.757 0.62917,-0.7572 0.65084,-0.7572 0.65083,-0.7569 0.6511,-0.79 0.65087,-0.8229 0.65083,-0.7901 0.69422,-0.8557 0.65111,-0.8887 0.7159,-0.9214 0.69421,-0.9217 0.73786,-0.9549 0.73759,-1.0532 0.75927,-1.0201 0.80291,-1.1193 0.8246,-1.152 0.82434,-1.1519 0.86795,-1.25098 0.88943,-1.28375 0.91132,-1.34937 0.93303,-1.38248 0.95471,-1.38271 0.99782,-1.48127 0.99809,-1.51366 1.01977,-1.54724 1.04145,-1.54704 1.04147,-1.57998 1.06314,-1.57985 1.01975,-1.57999 1.04147,-1.58002 0.99808,-1.54702 0.99809,-1.48123 0.93303,-1.44843 0.91108,-1.38217 0.82459,-1.31669 0.78097,-1.21773 0.71616,-1.08647 0.65084,-0.98737 0.5641,-0.88868 0.47736,-0.7571 0.4123,-0.62546 0.32528,-0.52681 0.2822,-0.39477 0.17348,-0.32901 0.13012,-0.1978 0.1087,-0.13156 0.0433,-0.0657 0,-0.0328"
         style="fill:none;stroke:#000000;stroke-width:1.25;stroke-linecap:round;stroke-linejoin:miter;stroke-miterlimit:4;stroke-dasharray:none"
         inkscape:connector-curvature="0" />
      <path
         id="path3025-0-9"
         d="m 16.454659,1044.3898 0.03585,0 0.143533,0 0.215697,0 0.358757,0 0.538574,0 0.717526,0 0.825583,-0.029 0.969085,-0.029 1.148891,-0.03 1.256102,-0.029 1.328268,-0.029 1.435482,-0.029 1.471785,-0.029 1.471786,-0.057 1.471342,-0.055 1.471786,-0.056 1.471785,-0.029 1.435466,-0.085 1.364158,-0.086 1.399606,-0.029 1.328268,-0.1126 1.256105,-0.085 1.292391,-0.058 1.256104,-0.1126 1.256517,-0.085 1.220228,-0.141 1.256089,-0.085 1.256532,-0.1125 1.291978,-0.1694 1.328268,-0.1414 1.363731,-0.1413 1.005389,-0.1411 1.076711,-0.1125 1.076709,-0.1413 1.112588,-0.1413 1.14892,-0.1696 1.148445,-0.1409 1.220229,-0.1695 1.256532,-0.1693 1.256089,-0.1698 1.256516,-0.1975 1.32784,-0.1977 1.364174,-0.198 1.363716,-0.2257 1.435893,-0.226 1.399606,-0.2261 1.471787,-0.254 1.471786,-0.2259 1.471356,-0.2543 1.543536,-0.2824 1.507646,-0.2538 1.543538,-0.2827 1.578982,-0.2822 1.543538,-0.2827 1.543536,-0.2825 1.543521,-0.2821 1.543537,-0.3391 1.578999,-0.2824 1.543521,-0.3107 1.507646,-0.3107 1.543124,-0.2823 1.50766,-0.3389 1.471771,-0.3106 1.471785,-0.3388 1.435482,-0.3108 1.435894,-0.3106 1.435486,-0.3387 1.40002,-0.3109 1.40002,-0.3105 1.36374,-0.3391 1.40005,-0.3387 1.32784,-0.3109 1.36412,-0.3669 1.2561,-0.3107 1.29241,-0.3387 1.29199,-0.3393 1.25651,-0.3386 1.25609,-0.3674 1.32828,-0.3387 1.29197,-0.3673 1.3283,-0.3952 1.32783,-0.3956 1.32829,-0.3954 1.36373,-0.3953 1.32824,-0.4518 1.36376,-0.4237 1.40001,-0.4517 1.36374,-0.452 1.40004,-0.4797 1.40002,-0.5088 1.39959,-0.48 1.43592,-0.5081 1.39958,-0.5085 1.40004,-0.5084 1.43592,-0.565 1.36373,-0.5367 1.43588,-0.5646 1.39963,-0.5647 1.36415,-0.5649 1.40002,-0.5649 1.36374,-0.5931 1.32828,-0.593 1.36372,-0.5929 1.32827,-0.5931 1.29198,-0.6213 1.29241,-0.6215 1.29196,-0.6214 1.25609,-0.6212 1.25653,-0.6214 1.22021,-0.5931 1.22066,-0.6495 1.18433,-0.6493 1.22022,-0.6496 1.18478,-0.6213 1.14848,-0.678 1.18431,-0.6776 1.1848,-0.6495 1.04088,-0.6497 1.0767,-0.6497 1.07669,-0.6493 1.07714,-0.6779 1.07674,-0.706 1.07668,-0.678 1.14848,-0.7342 1.07715,-0.7624 1.18432,-0.7906 1.14848,-0.7907 1.22066,-0.8194 1.22021,-0.9036 1.25609,-0.87535 1.32828,-0.96031 1.36416,-0.98841 1.36375,-0.98823 1.43589,-1.07336 1.47138,-1.10147 1.50763,-1.15774 1.54355,-1.18618 1.57941,-1.18634 1.65073,-1.27093 1.65117,-1.29872 1.68703,-1.32754 1.72292,-1.32734 1.72292,-1.35563 1.75878,-1.35549 1.68703,-1.35563 1.72293,-1.35565 1.65115,-1.32734 1.65117,-1.2709 1.54355,-1.24273 1.50721,-1.18591 1.36417,-1.12972 1.29198,-1.04481 1.18476,-0.93218 1.07671,-0.84715 0.9332,-0.76249 0.78972,-0.64959 0.68208,-0.53665 0.53814,-0.452 0.46684,-0.3387 0.287,-0.2823 0.21525,-0.1697 0.17983,-0.11288 0.0716,-0.0563 0,-0.0282"
         style="fill:none;stroke:#000000;stroke-width:2.36433482;stroke-linecap:round;stroke-linejoin:miter;stroke-miterlimit:4;stroke-dasharray:none"
         inkscape:connector-curvature="0" />
      <path
         style="fill:none;fill-rule:evenodd;stroke:#000000;stroke-width:1.25;stroke-linecap:butt;stroke-linejoin:miter;stroke-miterlimit:4;stroke-dasharray:none;stroke-opacity:1"
         d="m 15.838227,980.85343 117.217193,0"
         id="path5128"
         inkscape:connector-curvature="0" />
      <path
         style="fill:none;fill-rule:evenodd;stroke:#000000;stroke-width:1.26268399;stroke-linecap:butt;stroke-linejoin:miter;stroke-miterlimit:4;stroke-dasharray:none;stroke-opacity:1"
         d="m 130.19537,980.85343 75.80094,0"
         id="path5128-4"
         inkscape:connector-curvature="0" />
      <path
         style="fill:none;fill-rule:evenodd;stroke:#000000;stroke-width:1.25;stroke-linecap:butt;stroke-linejoin:miter;stroke-miterlimit:4;stroke-dasharray:none;stroke-opacity:1"
         d="m 16.159655,1006.5677 97.742735,0"
         id="path5128-43"
         inkscape:connector-curvature="0" />
      <path
         style="fill:none;fill-rule:evenodd;stroke:#000000;stroke-width:1.21397507;stroke-linecap:butt;stroke-linejoin:miter;stroke-miterlimit:4;stroke-dasharray:none;stroke-opacity:1"
         d="m 112.8283,1006.5677 59.29564,0"
         id="path5128-4-3"
         inkscape:connector-curvature="0" />
      <path
         style="fill:none;fill-rule:evenodd;stroke:#000000;stroke-width:1px;stroke-linecap:butt;stroke-linejoin:miter;stroke-opacity:1"
         d="m 44.94537,976.74629 8.392857,8.39286"
         id="path5178"
         inkscape:connector-curvature="0" />
      <path
         style="fill:none;fill-rule:evenodd;stroke:#000000;stroke-width:1px;stroke-linecap:butt;stroke-linejoin:miter;stroke-opacity:1"
         d="m 40.123941,1010.6749 10.357143,-10.3572"
         id="path5180"
         inkscape:connector-curvature="0" />
      <path
         style="fill:none;fill-rule:evenodd;stroke:#000000;stroke-width:1px;stroke-linecap:butt;stroke-linejoin:miter;stroke-miterlimit:4;stroke-dasharray:none;stroke-opacity:1"
         d="m 159.05251,975.85342 8.39286,8.39286"
         id="path5178-8"
         inkscape:connector-curvature="0" />
      <path
         style="fill:none;fill-rule:evenodd;stroke:#000000;stroke-width:1px;stroke-linecap:butt;stroke-linejoin:miter;stroke-miterlimit:4;stroke-dasharray:none;stroke-opacity:1"
         d="M 139.40965,1011.3892 149.7668,1001.032"
         id="path5180-2"
         inkscape:connector-curvature="0" />
      <text
         sodipodi:linespacing="125%"
         id="text4726-0"
         y="870.55438"
         x="101.41877"
         style="font-style:normal;font-variant:normal;font-weight:normal;font-stretch:normal;font-size:11px;line-height:125%;font-family:'Times New Roman';-inkscape-font-specification:'Times New Roman,';text-align:start;letter-spacing:0px;word-spacing:0px;writing-mode:lr-tb;text-anchor:start;fill:#000000;fill-opacity:1;stroke:none;stroke-width:1.25;stroke-miterlimit:4;stroke-dasharray:none"
         xml:space="preserve"><tspan
           y="870.55438"
           x="101.41877"
           id="tspan4728-4"
           sodipodi:role="line">Q<tspan
   style="font-size:64.99999762%;baseline-shift:sub;stroke-width:1.25;stroke-miterlimit:4;stroke-dasharray:none"
   id="tspan4224-6">1</tspan></tspan></text>
      <text
         sodipodi:linespacing="125%"
         id="text4726-0-2"
         y="906.0451"
         x="101.14351"
         style="font-style:normal;font-variant:normal;font-weight:normal;font-stretch:normal;font-size:11px;line-height:125%;font-family:'Times New Roman';-inkscape-font-specification:'Times New Roman,';text-align:start;letter-spacing:0px;word-spacing:0px;writing-mode:lr-tb;text-anchor:start;fill:#000000;fill-opacity:1;stroke:none;stroke-width:1.25;stroke-miterlimit:4;stroke-dasharray:none"
         xml:space="preserve"><tspan
           y="906.0451"
           x="101.14351"
           id="tspan4728-4-8"
           sodipodi:role="line">Q<tspan
   style="font-size:64.99999762%;baseline-shift:sub;stroke-width:1.25;stroke-miterlimit:4;stroke-dasharray:none"
   id="tspan4224-6-5">2</tspan></tspan></text>
    </g>
  </g>
</svg>
