<?xml version="1.0" encoding="UTF-8" standalone="no"?>
<!-- Created with Inkscape (http://www.inkscape.org/) -->

<svg
   xmlns:dc="http://purl.org/dc/elements/1.1/"
   xmlns:cc="http://creativecommons.org/ns#"
   xmlns:rdf="http://www.w3.org/1999/02/22-rdf-syntax-ns#"
   xmlns:svg="http://www.w3.org/2000/svg"
   xmlns="http://www.w3.org/2000/svg"
   xmlns:sodipodi="http://sodipodi.sourceforge.net/DTD/sodipodi-0.dtd"
   xmlns:inkscape="http://www.inkscape.org/namespaces/inkscape"
   width="120mm"
   height="70mm"
   viewBox="0 0 425.19685 248.0315"
   id="svg2"
   version="1.1"
   inkscape:version="0.91 r13725"
   sodipodi:docname="HeadCurves.svg">
  <defs
     id="defs4">
    <marker
       inkscape:stockid="DotM"
       orient="auto"
       refY="0.0"
       refX="0.0"
       id="DotM"
       style="overflow:visible"
       inkscape:isstock="true">
      <path
         id="path4281"
         d="M -2.5,-1.0 C -2.5,1.7600000 -4.7400000,4.0 -7.5,4.0 C -10.260000,4.0 -12.5,1.7600000 -12.5,-1.0 C -12.5,-3.7600000 -10.260000,-6.0 -7.5,-6.0 C -4.7400000,-6.0 -2.5,-3.7600000 -2.5,-1.0 z "
         style="fill-rule:evenodd;stroke:#000000;stroke-width:1pt;stroke-opacity:1;fill:#000000;fill-opacity:1"
         transform="scale(0.4) translate(7.4, 1)" />
    </marker>
    <marker
       inkscape:isstock="true"
       style="overflow:visible"
       id="marker4601"
       refX="0.0"
       refY="0.0"
       orient="auto"
       inkscape:stockid="DotM">
      <path
         transform="scale(0.4) translate(7.4, 1)"
         style="fill-rule:evenodd;stroke:#000000;stroke-width:1pt;stroke-opacity:1;fill:#000000;fill-opacity:1"
         d="M -2.5,-1.0 C -2.5,1.7600000 -4.7400000,4.0 -7.5,4.0 C -10.260000,4.0 -12.5,1.7600000 -12.5,-1.0 C -12.5,-3.7600000 -10.260000,-6.0 -7.5,-6.0 C -4.7400000,-6.0 -2.5,-3.7600000 -2.5,-1.0 z "
         id="path4603" />
    </marker>
    <marker
       inkscape:stockid="DotM"
       orient="auto"
       refY="0.0"
       refX="0.0"
       id="marker4543"
       style="overflow:visible"
       inkscape:isstock="true">
      <path
         id="path4545"
         d="M -2.5,-1.0 C -2.5,1.7600000 -4.7400000,4.0 -7.5,4.0 C -10.260000,4.0 -12.5,1.7600000 -12.5,-1.0 C -12.5,-3.7600000 -10.260000,-6.0 -7.5,-6.0 C -4.7400000,-6.0 -2.5,-3.7600000 -2.5,-1.0 z "
         style="fill-rule:evenodd;stroke:#000000;stroke-width:1pt;stroke-opacity:1;fill:#000000;fill-opacity:1"
         transform="scale(0.4) translate(7.4, 1)" />
    </marker>
    <marker
       inkscape:stockid="DotL"
       orient="auto"
       refY="0.0"
       refX="0.0"
       id="DotL"
       style="overflow:visible"
       inkscape:isstock="true">
      <path
         id="path4278"
         d="M -2.5,-1.0 C -2.5,1.7600000 -4.7400000,4.0 -7.5,4.0 C -10.260000,4.0 -12.5,1.7600000 -12.5,-1.0 C -12.5,-3.7600000 -10.260000,-6.0 -7.5,-6.0 C -4.7400000,-6.0 -2.5,-3.7600000 -2.5,-1.0 z "
         style="fill-rule:evenodd;stroke:#000000;stroke-width:1pt;stroke-opacity:1;fill:#000000;fill-opacity:1"
         transform="scale(0.8) translate(7.4, 1)" />
    </marker>
    <marker
       style="overflow:visible"
       id="Arrow1Lstart"
       refX="0"
       refY="0"
       orient="auto"
       inkscape:stockid="Arrow1Lstart">
      <path
         transform="matrix(0.8,0,0,0.8,10,0)"
         style="fill-rule:evenodd;stroke:#000000;stroke-width:1pt;marker-start:none"
         d="M 0,0 5,-5 -12.5,0 5,5 0,0 Z"
         id="path3895"
         inkscape:connector-curvature="0" />
    </marker>
    <marker
       style="overflow:visible"
       id="Arrow1Lend"
       refX="0"
       refY="0"
       orient="auto"
       inkscape:stockid="Arrow1Lend">
      <path
         transform="matrix(-0.8,0,0,-0.8,-10,0)"
         style="fill-rule:evenodd;stroke:#000000;stroke-width:1pt;marker-start:none"
         d="M 0,0 5,-5 -12.5,0 5,5 0,0 Z"
         id="path3898"
         inkscape:connector-curvature="0" />
    </marker>
  </defs>
  <sodipodi:namedview
     id="base"
     pagecolor="#ffffff"
     bordercolor="#666666"
     borderopacity="1.0"
     inkscape:pageopacity="0.0"
     inkscape:pageshadow="2"
     inkscape:zoom="1.979899"
     inkscape:cx="145.60521"
     inkscape:cy="104.52351"
     inkscape:document-units="px"
     inkscape:current-layer="layer1-3"
     showgrid="false"
     inkscape:window-width="1920"
     inkscape:window-height="1017"
     inkscape:window-x="1912"
     inkscape:window-y="-8"
     inkscape:window-maximized="1" />
  <metadata
     id="metadata7">
    <rdf:RDF>
      <cc:Work
         rdf:about="">
        <dc:format>image/svg+xml</dc:format>
        <dc:type
           rdf:resource="http://purl.org/dc/dcmitype/StillImage" />
        <dc:title></dc:title>
      </cc:Work>
    </rdf:RDF>
  </metadata>
  <g
     inkscape:label="1. réteg"
     inkscape:groupmode="layer"
     id="layer1"
     transform="translate(0,-804.33071)">
    <g
       transform="translate(-3.3382273,-35.276944)"
       id="layer1-3"
       inkscape:label="1. réteg">
      <path
         id="path2991"
         d="m 204.45595,959.27474 c 0,1.80985 -1.44144,3.28699 -3.25281,3.28699 -1.81138,0 -3.25326,-1.47714 -3.25326,-3.28699 0,-1.77293 1.44188,-3.25052 3.25326,-3.25052 1.81137,0 3.25281,1.47759 3.25281,3.25052"
         style="fill:none;stroke:#000000;stroke-width:0.70866144;stroke-linecap:round;stroke-linejoin:miter;stroke-miterlimit:4;stroke-dasharray:none"
         inkscape:connector-curvature="0" />
      <path
         id="path2997"
         d="m 33.854296,867.79186 0,190.39634 246.309864,0"
         style="fill:none;stroke:#000000;stroke-width:1;stroke-linecap:round;stroke-linejoin:miter;stroke-miterlimit:4;stroke-dasharray:none;marker-start:none;marker-end:none"
         inkscape:connector-curvature="0" />
      <path
         id="path3003"
         d="M 70.046036,873.84756 55.161931,895.46108"
         style="fill:none;stroke:#000000;stroke-width:0.35433072;stroke-linecap:round;stroke-linejoin:miter;stroke-miterlimit:4;stroke-dasharray:none;marker-end:url(#Arrow1Lend)"
         inkscape:connector-curvature="0" />
      <path
         id="path3007"
         d="M 242.30761,950.13377 231.87519,930.09581"
         style="fill:none;stroke:#000000;stroke-width:0.35433072;stroke-linecap:round;stroke-linejoin:miter;stroke-miterlimit:4;stroke-dasharray:none;marker-end:url(#Arrow1Lend)"
         inkscape:connector-curvature="0" />
      <path
         id="path3011"
         d="m 201.20314,961.71241 0,100.01129"
         style="fill:none;stroke:#000000;stroke-width:1;stroke-linecap:round;stroke-linejoin:miter;stroke-miterlimit:4;stroke-dasharray:6, 6;stroke-dashoffset:0"
         inkscape:connector-curvature="0" />
      <path
         id="path3023"
         d="m 33.854296,896.77966 0.03695,0 0.110846,0 0.221692,0 0.332983,0 0.480332,0 0.628572,0 0.813315,0 0.998059,0.0369 1.145853,0 1.294092,0.0369 1.441443,0.0369 1.589681,0.0369 1.737477,0.0369 1.774425,0.0738 1.848322,0 1.885271,0.0738 1.922219,0.0738 1.92222,0.0738 1.92222,0.0369 1.885716,0.0738 1.848322,0.0743 1.811374,0.11075 1.774425,0.0738 1.700082,0.0738 1.700528,0.11075 1.589682,0.0738 1.552733,0.14767 1.515339,0.0738 1.515785,0.14767 1.404938,0.1112 1.441442,0.14767 1.36799,0.11075 1.367545,0.18459 1.36799,0.14767 1.330596,0.14767 1.331042,0.22195 1.330596,0.18459 1.331041,0.18459 1.367545,0.2215 1.145853,0.18459 1.220195,0.22195 1.182802,0.18459 1.21975,0.2215 1.257144,0.22151 1.21975,0.25886 1.294093,0.25842 1.293648,0.25843 1.293647,0.29578 1.331042,0.29534 1.330597,0.29534 1.40494,0.3327 1.40494,0.33226 1.36754,0.36918 1.47884,0.36962 1.44144,0.36917 1.44189,0.40654 1.51578,0.40609 1.47839,0.40654 1.51578,0.47992 1.51579,0.44346 1.51534,0.47993 1.55273,0.48037 1.55273,0.51684 1.51534,0.48038 1.55274,0.55376 1.55273,0.55421 1.51534,0.5542 1.55273,0.55377 1.55273,0.5542 1.51534,0.59068 1.47884,0.59113 1.47884,0.62804 1.47839,0.59068 1.51578,0.62804 1.44189,0.62804 1.44144,0.6276 1.40494,0.62804 1.44144,0.70188 1.36799,0.62804 1.40449,0.70143 1.36799,0.66496 1.36755,0.70188 1.36799,0.70188 1.36754,0.73879 1.33105,0.73835 1.25669,0.70188 1.2941,0.70188 1.33059,0.73879 1.2941,0.77571 1.29364,0.77527 1.33104,0.81263 1.3306,0.84955 1.36799,0.84954 1.3306,0.84955 1.33059,0.88647 1.40494,0.92338 1.36799,0.92338 1.36755,0.9603 1.40493,0.9603 1.44145,1.03413 1.40494,0.99766 1.40449,1.03414 1.40494,1.07105 1.44144,1.03414 1.40494,1.07105 1.44189,1.10797 1.44144,1.14533 1.40494,1.10797 1.40449,1.14488 1.40494,1.14489 1.40449,1.14533 1.36799,1.14489 1.4045,1.1818 1.33104,1.14534 1.33059,1.1818 1.33104,1.18181 1.29365,1.1818 1.29409,1.14533 1.21975,1.18181 1.2567,1.10797 1.2202,1.18224 1.1828,1.14489 1.1828,1.10797 1.1463,1.14489 1.1089,1.10841 1.10891,1.10797 1.07195,1.14489 1.03501,1.10797 1.03545,1.07105 0.99806,1.0715 1.03501,1.10797 0.99806,1.07105 0.96111,1.10797 1.035,1.18225 0.99806,1.14488 1.03501,1.21873 0.9985,1.1818 0.99806,1.21917 0.99806,1.25564 0.99806,1.21916 0.96111,1.21873 0.96111,1.25563 0.96111,1.25609 0.99806,1.29256 0.92416,1.293 0.96111,1.29255 0.96111,1.29256 0.92416,1.32992 0.92416,1.32947 0.92416,1.32992 0.88721,1.32948 0.92416,1.32992 0.88722,1.32947 0.85026,1.293 0.88721,1.32948 0.85027,1.32991 0.81331,1.2925 0.81332,1.2926 0.77636,1.293 0.77637,1.2556 0.73897,1.2192 0.73942,1.2556 0.73942,1.2187 0.66552,1.1454 0.66552,1.1818 0.66508,1.1449 0.59162,1.108 0.62857,1.1084 0.62813,1.071 0.55467,1.0342 0.51773,1.0341 0.55423,0.9972 0.51772,0.9603 0.48034,0.9603 0.51772,0.9234 0.48034,0.9234 0.44382,0.9234 0.62813,1.1822 0.55468,1.2187 0.59162,1.1449 0.59118,1.1823 0.55467,1.1448 0.55468,1.1449 0.51728,1.1449 0.51772,1.2192 0.51729,1.1449 0.55467,1.2187 0.55467,1.2561 0.55423,1.2925 0.55468,1.33 0.55423,1.3664 0.59162,1.4037 0.55468,1.3664 0.59118,1.4407 0.59162,1.4033 0.55467,1.4406 0.55423,1.3295 0.51773,1.293 0.44338,1.2187 0.40688,1.108 0.40644,0.9608 0.29559,0.8121 0.25908,0.665 0.22169,0.4804 0.11085,0.3692 0.11085,0.2215 0.0369,0.1107 0.0369,0.074"
         style="fill:none;stroke:#2c2c2b;stroke-width:1;stroke-linecap:round;stroke-linejoin:miter;stroke-miterlimit:4;stroke-dasharray:none"
         inkscape:connector-curvature="0" />
      <path
         id="path3025"
         d="m 33.854296,1014.5304 0.03695,0 0.147795,0 0.222137,0 0.369486,0 0.554675,0 0.738973,0 0.850263,-0.037 0.998059,-0.037 1.183247,-0.037 1.293647,-0.037 1.36799,-0.037 1.478391,-0.037 1.515784,-0.037 1.515785,-0.074 1.515339,-0.074 1.515785,-0.074 1.515784,-0.037 1.478391,-0.1107 1.404939,-0.1108 1.441442,-0.037 1.36799,-0.1477 1.293647,-0.1107 1.331042,-0.074 1.293647,-0.1477 1.294093,-0.1112 1.256699,-0.1846 1.293647,-0.1107 1.294093,-0.1477 1.330596,-0.2215 1.36799,-0.185 1.404494,-0.1846 1.035452,-0.1846 1.108904,-0.1477 1.108904,-0.1846 1.145853,-0.185 1.183247,-0.2215 1.182802,-0.1846 1.256699,-0.2215 1.294092,-0.2215 1.293648,-0.222 1.294093,-0.2584 1.367544,-0.2584 1.404939,-0.2589 1.404493,-0.2953 1.478836,-0.2954 1.441442,-0.2958 1.515785,-0.3322 1.515784,-0.2954 1.51534,-0.3327 1.589682,-0.3691 1.552733,-0.3323 1.589682,-0.3696 1.626185,-0.3692 1.589685,-0.3696 1.58968,-0.3692 1.58968,-0.3692 1.58968,-0.4434 1.62619,-0.3692 1.58968,-0.4065 1.55273,-0.4061 1.58924,-0.3696 1.55273,-0.443 1.51578,-0.4066 1.51579,-0.443 1.47839,-0.4065 1.47883,-0.4061 1.4784,-0.443 1.44188,-0.4065 1.44189,-0.40611 1.40449,-0.44345 1.44189,-0.44301 1.36755,-0.40654 1.40493,-0.47993 1.29365,-0.40654 1.33104,-0.44301 1.3306,-0.44345 1.29409,-0.44301 1.29365,-0.48037 1.36799,-0.44301 1.3306,-0.48037 1.36799,-0.51685 1.36754,-0.51729 1.36799,-0.51729 1.40449,-0.51684 1.36799,-0.59113 1.4045,-0.55376 1.44188,-0.59112 1.4045,-0.59113 1.44189,-0.6276 1.44188,-0.66496 1.44144,-0.62804 1.47884,-0.66451 1.44144,-0.66496 1.44189,-0.66496 1.47884,-0.7388 1.40449,-0.70187 1.47883,-0.73835 1.44145,-0.7388 1.40494,-0.73879 1.44188,-0.7388 1.4045,-0.77571 1.36799,-0.77571 1.40449,-0.77527 1.36799,-0.77571 1.3306,-0.81263 1.33104,-0.81263 1.33059,-0.81263 1.29365,-0.81263 1.29409,-0.81263 1.2567,-0.77571 1.25715,-0.84955 1.21975,-0.8491 1.2567,-0.84955 1.22019,-0.81263 1.1828,-0.88646 1.21975,-0.88647 1.2202,-0.84954 1.07195,-0.84955 1.10891,-0.84955 1.1089,-0.84954 1.10935,-0.88647 1.10891,-0.92338 1.1089,-0.88647 1.1828,-0.96029 1.10935,-0.99722 1.21975,-1.03414 1.1828,-1.03413 1.25715,-1.0715 1.2567,-1.1818 1.29364,-1.14489 1.36799,-1.25608 1.40494,-1.29256 1.4045,-1.29256 1.47883,-1.40375 1.51534,-1.44067 1.55273,-1.51406 1.58969,-1.55143 1.62663,-1.55142 1.70008,-1.66218 1.70053,-1.69865 1.73747,-1.73601 1.77443,-1.73601 1.77442,-1.77293 1.81138,-1.77293 1.73747,-1.77293 1.77443,-1.77293 1.70053,-1.73601 1.70052,-1.66218 1.58969,-1.62526 1.55228,-1.55097 1.40494,-1.47759 1.3306,-1.3664 1.22019,-1.21916 1.10891,-1.10797 0.96111,-0.99722 0.81331,-0.84955 0.70247,-0.70187 0.55423,-0.59113 0.48078,-0.44301 0.29559,-0.36917 0.22169,-0.22195 0.18519,-0.14767 0.0739,-0.0738 0,-0.0369"
         style="fill:none;stroke:#000000;stroke-width:1;stroke-linecap:round;stroke-linejoin:miter;stroke-miterlimit:4;stroke-dasharray:none"
         inkscape:connector-curvature="0" />
      <text
         sodipodi:linespacing="125%"
         id="text4704"
         y="1071.5277"
         x="270.26224"
         style="font-style:normal;font-variant:normal;font-weight:normal;font-stretch:normal;font-size:11px;line-height:125%;font-family:'Times New Roman';-inkscape-font-specification:'Times New Roman,';text-align:start;letter-spacing:0px;word-spacing:0px;writing-mode:lr-tb;text-anchor:start;fill:#000000;fill-opacity:1;stroke:none"
         xml:space="preserve"><tspan
           y="1071.5277"
           x="270.26224"
           id="tspan4706"
           sodipodi:role="line">Q</tspan></text>
      <text
         sodipodi:linespacing="125%"
         id="text4708"
         y="877.0733"
         x="17.724077"
         style="font-style:normal;font-variant:normal;font-weight:normal;font-stretch:normal;font-size:11px;line-height:125%;font-family:'Times New Roman';-inkscape-font-specification:'Times New Roman,';text-align:start;letter-spacing:0px;word-spacing:0px;writing-mode:lr-tb;text-anchor:start;fill:#000000;fill-opacity:1;stroke:none"
         xml:space="preserve"><tspan
           y="877.0733"
           x="17.724077"
           id="tspan4710"
           sodipodi:role="line">H</tspan></text>
      <text
         sodipodi:linespacing="125%"
         id="text4712"
         y="875.55804"
         x="72.272308"
         style="font-style:normal;font-variant:normal;font-weight:normal;font-stretch:normal;font-size:11px;line-height:125%;font-family:'Times New Roman';-inkscape-font-specification:'Times New Roman,';text-align:start;letter-spacing:0px;word-spacing:0px;writing-mode:lr-tb;text-anchor:start;fill:#000000;fill-opacity:1;stroke:none"
         xml:space="preserve"><tspan
           id="tspan4724"
           y="875.55804"
           x="72.272308"
           sodipodi:role="line">pump head</tspan></text>
      <text
         sodipodi:linespacing="125%"
         id="text4720"
         y="821.15778"
         x="227.28432"
         style="font-style:normal;font-variant:normal;font-weight:normal;font-stretch:normal;font-size:11px;line-height:125%;font-family:'Times New Roman';-inkscape-font-specification:'Times New Roman,';text-align:start;letter-spacing:0px;word-spacing:0px;writing-mode:lr-tb;text-anchor:start;fill:#000000;fill-opacity:1;stroke:none"
         xml:space="preserve"><tspan
           y="821.15778"
           x="227.28432"
           id="tspan4722"
           sodipodi:role="line" /></text>
      <text
         sodipodi:linespacing="125%"
         id="text4726"
         y="952.83472"
         x="244.50331"
         style="font-style:normal;font-variant:normal;font-weight:normal;font-stretch:normal;font-size:11px;line-height:125%;font-family:'Times New Roman';-inkscape-font-specification:'Times New Roman,';text-align:start;letter-spacing:0px;word-spacing:0px;writing-mode:lr-tb;text-anchor:start;fill:#000000;fill-opacity:1;stroke:none"
         xml:space="preserve"><tspan
           y="952.83472"
           x="244.50331"
           id="tspan4728"
           sodipodi:role="line">pipeline</tspan></text>
      <text
         xml:space="preserve"
         style="font-style:normal;font-variant:normal;font-weight:normal;font-stretch:normal;font-size:11px;line-height:125%;font-family:'Times New Roman';-inkscape-font-specification:'Times New Roman,';text-align:start;letter-spacing:0px;word-spacing:0px;writing-mode:lr-tb;text-anchor:start;fill:#000000;fill-opacity:1;stroke:none"
         x="198.26222"
         y="1071.5277"
         id="text4736"
         sodipodi:linespacing="125%"><tspan
           sodipodi:role="line"
           id="tspan4738"
           x="198.26222"
           y="1071.5277">Q<tspan
   style="font-size:64.99999762%;baseline-shift:sub"
   id="tspan4264">op</tspan></tspan></text>
      <path
         inkscape:connector-curvature="0"
         id="path5120"
         d="m 280.16416,1058.1882 -6.77946,0"
         style="fill:none;fill-opacity:1;stroke:#000000;stroke-width:0.70866144;stroke-linecap:round;stroke-linejoin:miter;stroke-miterlimit:4;stroke-dasharray:none;stroke-dashoffset:0;stroke-opacity:1;marker-start:url(#Arrow1Lstart)" />
      <path
         style="fill:none;stroke:#000000;stroke-width:0.70866144;stroke-linecap:round;stroke-linejoin:miter;stroke-miterlimit:4;stroke-dasharray:none;stroke-dashoffset:0;stroke-opacity:1;marker-start:url(#Arrow1Lstart)"
         d="m 33.854296,867.79186 0,6.77946"
         id="path5306"
         inkscape:connector-curvature="0" />
      <path
         style="fill:none;fill-rule:evenodd;stroke:#000000;stroke-width:1;stroke-linecap:butt;stroke-linejoin:miter;stroke-miterlimit:4;stroke-dasharray:6, 6;stroke-dashoffset:0;stroke-opacity:1"
         d="m 200.77695,958.52059 -172.857142,0"
         id="path4242"
         inkscape:connector-curvature="0" />
      <text
         xml:space="preserve"
         style="font-style:normal;font-variant:normal;font-weight:normal;font-stretch:normal;font-size:11px;line-height:125%;font-family:'Times New Roman';-inkscape-font-specification:'Times New Roman,';text-align:start;letter-spacing:0px;word-spacing:0px;writing-mode:lr-tb;text-anchor:start;fill:#000000;fill-opacity:1;stroke:none"
         x="8.1315174"
         y="961.22992"
         id="text4736-1"
         sodipodi:linespacing="125%"><tspan
           sodipodi:role="line"
           id="tspan4738-9"
           x="8.1315174"
           y="961.22992">H<tspan
   style="font-size:64.99999762%;baseline-shift:sub"
   id="tspan4262">op</tspan></tspan></text>
      <path
         style="fill:none;fill-rule:evenodd;stroke:#000000;stroke-width:1px;stroke-linecap:butt;stroke-linejoin:miter;stroke-opacity:1;marker-start:url(#marker4601)"
         d="m 371.03376,1067.9412 0,-32.3249"
         id="path4188"
         inkscape:connector-curvature="0" />
      <circle
         style="opacity:1;fill:#000000;fill-opacity:0;stroke:#000000;stroke-width:1;stroke-miterlimit:4;stroke-dasharray:none;stroke-dashoffset:0;stroke-opacity:1"
         id="path4190"
         cx="370.57037"
         cy="1025.5856"
         r="9.9200516" />
      <path
         style="fill:#000000;fill-opacity:1;fill-rule:evenodd;stroke:#000000;stroke-width:1px;stroke-linecap:butt;stroke-linejoin:miter;stroke-opacity:1"
         d="m 370.40712,1016.0121 0,9.4643 5.17857,0 z"
         id="path4192"
         inkscape:connector-curvature="0" />
      <path
         style="fill:#000000;fill-opacity:1;fill-rule:evenodd;stroke:#000000;stroke-width:1px;stroke-linecap:butt;stroke-linejoin:miter;stroke-opacity:1"
         d="m 370.385,1016.0128 0,9.4643 -5.17857,0 z"
         id="path4192-3"
         inkscape:connector-curvature="0" />
      <path
         style="fill:none;fill-rule:evenodd;stroke:#000000;stroke-width:1px;stroke-linecap:butt;stroke-linejoin:miter;stroke-opacity:1"
         d="m 370.65966,1015.3177 0,-24.2857"
         id="path4209"
         inkscape:connector-curvature="0" />
      <text
         xml:space="preserve"
         style="font-style:normal;font-variant:normal;font-weight:normal;font-stretch:normal;font-size:11px;line-height:125%;font-family:'Times New Roman';-inkscape-font-specification:'Times New Roman,';text-align:start;letter-spacing:0px;word-spacing:0px;writing-mode:lr-tb;text-anchor:start;fill:#000000;fill-opacity:1;stroke:none"
         x="382.70523"
         y="1028.807"
         id="text4736-1-5"
         sodipodi:linespacing="125%"><tspan
           sodipodi:role="line"
           id="tspan4738-9-5"
           x="382.70523"
           y="1028.807">H<tspan
   style="font-size:65%;baseline-shift:sub"
   id="tspan4676">p</tspan></tspan></text>
      <text
         xml:space="preserve"
         style="font-style:normal;font-variant:normal;font-weight:normal;font-stretch:normal;font-size:11px;line-height:125%;font-family:'Times New Roman';-inkscape-font-specification:'Times New Roman,';text-align:start;letter-spacing:0px;word-spacing:0px;writing-mode:lr-tb;text-anchor:start;fill:#000000;fill-opacity:1;stroke:none"
         x="379.67657"
         y="942.76019"
         id="text4736-1-5-0"
         sodipodi:linespacing="125%"><tspan
           sodipodi:role="line"
           id="tspan4738-9-5-0"
           x="379.67657"
           y="942.76019">H<tspan
   style="font-size:64.99999762%;baseline-shift:sub"
   id="tspan4676-6">s</tspan></tspan></text>
      <path
         style="fill:none;fill-rule:evenodd;stroke:#000000;stroke-width:1px;stroke-linecap:butt;stroke-linejoin:miter;stroke-opacity:1;marker-start:url(#marker4543)"
         d="m 370.65495,991.16958 0,-23.86486"
         id="path4747"
         inkscape:connector-curvature="0" />
      <path
         style="fill:none;fill-rule:evenodd;stroke:#000000;stroke-width:1;stroke-linecap:butt;stroke-linejoin:miter;stroke-miterlimit:4;stroke-dasharray:4,4;stroke-dashoffset:0;stroke-opacity:1"
         d="m 370.66316,967.80656 0,-62.91598"
         id="path4749"
         inkscape:connector-curvature="0" />
      <path
         style="fill:none;fill-rule:evenodd;stroke:#000000;stroke-width:1;stroke-linecap:butt;stroke-linejoin:miter;stroke-opacity:1;marker-end:url(#DotM);stroke-miterlimit:4;stroke-dasharray:none"
         d="m 370.68198,904.79844 0,-21.60349"
         id="path4751"
         inkscape:connector-curvature="0" />
    </g>
  </g>
</svg>
