<?xml version="1.0" encoding="UTF-8" standalone="no"?>
<!-- Created with Inkscape (http://www.inkscape.org/) -->

<svg
   xmlns:dc="http://purl.org/dc/elements/1.1/"
   xmlns:cc="http://creativecommons.org/ns#"
   xmlns:rdf="http://www.w3.org/1999/02/22-rdf-syntax-ns#"
   xmlns:svg="http://www.w3.org/2000/svg"
   xmlns="http://www.w3.org/2000/svg"
   xmlns:xlink="http://www.w3.org/1999/xlink"
   xmlns:sodipodi="http://sodipodi.sourceforge.net/DTD/sodipodi-0.dtd"
   xmlns:inkscape="http://www.inkscape.org/namespaces/inkscape"
   width="524.40942"
   height="372.04724"
   id="svg2"
   version="1.1"
   inkscape:version="0.48.4 r9939"
   sodipodi:docname="lecture2_fig09_biztonsagi_szelep.svg">
  <defs
     id="defs4">
    <marker
       inkscape:stockid="Arrow1Mend"
       orient="auto"
       refY="0.0"
       refX="0.0"
       id="Arrow1Mend"
       style="overflow:visible;">
      <path
         id="path3977"
         d="M 0.0,0.0 L 5.0,-5.0 L -12.5,0.0 L 5.0,5.0 L 0.0,0.0 z "
         style="fill-rule:evenodd;stroke:#000000;stroke-width:1.0pt;"
         transform="scale(0.4) rotate(180) translate(10,0)" />
    </marker>
    <marker
       inkscape:stockid="SquareM"
       orient="auto"
       refY="0.0"
       refX="0.0"
       id="SquareM"
       style="overflow:visible">
      <path
         id="path4041"
         d="M -5.0,-5.0 L -5.0,5.0 L 5.0,5.0 L 5.0,-5.0 L -5.0,-5.0 z "
         style="fill-rule:evenodd;stroke:#000000;stroke-width:1.0pt"
         transform="scale(0.4)" />
    </marker>
    <marker
       inkscape:stockid="Arrow1Send"
       orient="auto"
       refY="0.0"
       refX="0.0"
       id="Arrow1Send"
       style="overflow:visible;">
      <path
         id="path3983"
         d="M 0.0,0.0 L 5.0,-5.0 L -12.5,0.0 L 5.0,5.0 L 0.0,0.0 z "
         style="fill-rule:evenodd;stroke:#000000;stroke-width:1.0pt;"
         transform="scale(0.2) rotate(180) translate(6,0)" />
    </marker>
    <marker
       inkscape:stockid="DotL"
       orient="auto"
       refY="0.0"
       refX="0.0"
       id="DotL"
       style="overflow:visible">
      <path
         id="path4029"
         d="M -2.5,-1.0 C -2.5,1.7600000 -4.7400000,4.0 -7.5,4.0 C -10.260000,4.0 -12.5,1.7600000 -12.5,-1.0 C -12.5,-3.7600000 -10.260000,-6.0 -7.5,-6.0 C -4.7400000,-6.0 -2.5,-3.7600000 -2.5,-1.0 z "
         style="fill-rule:evenodd;stroke:#000000;stroke-width:1.0pt"
         transform="scale(0.8) translate(7.4, 1)" />
    </marker>
    <marker
       inkscape:stockid="Tail"
       orient="auto"
       refY="0.0"
       refX="0.0"
       id="Tail"
       style="overflow:visible">
      <g
         id="g4004"
         transform="scale(-1.2)">
        <path
           id="path4006"
           d="M -3.8048674,-3.9585227 L 0.54352094,0"
           style="fill:none;fill-rule:evenodd;stroke:#000000;stroke-width:0.8;stroke-linecap:round" />
        <path
           id="path4008"
           d="M -1.2866832,-3.9585227 L 3.0617053,0"
           style="fill:none;fill-rule:evenodd;stroke:#000000;stroke-width:0.8;stroke-linecap:round" />
        <path
           id="path4010"
           d="M 1.3053582,-3.9585227 L 5.6537466,0"
           style="fill:none;fill-rule:evenodd;stroke:#000000;stroke-width:0.8;stroke-linecap:round" />
        <path
           id="path4012"
           d="M -3.8048674,4.1775838 L 0.54352094,0.21974226"
           style="fill:none;fill-rule:evenodd;stroke:#000000;stroke-width:0.8;stroke-linecap:round" />
        <path
           id="path4014"
           d="M -1.2866832,4.1775838 L 3.0617053,0.21974226"
           style="fill:none;fill-rule:evenodd;stroke:#000000;stroke-width:0.8;stroke-linecap:round" />
        <path
           id="path4016"
           d="M 1.3053582,4.1775838 L 5.6537466,0.21974226"
           style="fill:none;fill-rule:evenodd;stroke:#000000;stroke-width:0.8;stroke-linecap:round" />
      </g>
    </marker>
    <marker
       inkscape:stockid="Arrow1Lstart"
       orient="auto"
       refY="0.0"
       refX="0.0"
       id="Arrow1Lstart"
       style="overflow:visible">
      <path
         id="path3968"
         d="M 0.0,0.0 L 5.0,-5.0 L -12.5,0.0 L 5.0,5.0 L 0.0,0.0 z "
         style="fill-rule:evenodd;stroke:#000000;stroke-width:1.0pt"
         transform="scale(0.8) translate(12.5,0)" />
    </marker>
    <marker
       inkscape:stockid="Arrow1Mstart"
       orient="auto"
       refY="0.0"
       refX="0.0"
       id="Arrow1Mstart"
       style="overflow:visible">
      <path
         id="path3974"
         d="M 0.0,0.0 L 5.0,-5.0 L -12.5,0.0 L 5.0,5.0 L 0.0,0.0 z "
         style="fill-rule:evenodd;stroke:#000000;stroke-width:1.0pt"
         transform="scale(0.4) translate(10,0)" />
    </marker>
    <marker
       inkscape:stockid="Arrow1Lend"
       orient="auto"
       refY="0.0"
       refX="0.0"
       id="Arrow1Lend"
       style="overflow:visible;">
      <path
         id="path3971"
         d="M 0.0,0.0 L 5.0,-5.0 L -12.5,0.0 L 5.0,5.0 L 0.0,0.0 z "
         style="fill-rule:evenodd;stroke:#000000;stroke-width:1.0pt;"
         transform="scale(0.8) rotate(180) translate(12.5,0)" />
    </marker>
    <linearGradient
       id="linearGradient5235">
      <stop
         style="stop-color:#000000;stop-opacity:0.40645161;"
         offset="0"
         id="stop5237" />
      <stop
         style="stop-color:#000000;stop-opacity:0;"
         offset="1"
         id="stop5239" />
    </linearGradient>
    <linearGradient
       id="linearGradient5069">
      <stop
         style="stop-color:#000000;stop-opacity:0.4967742;"
         offset="0"
         id="stop5071" />
      <stop
         style="stop-color:#000000;stop-opacity:0;"
         offset="1"
         id="stop5073" />
    </linearGradient>
    <inkscape:perspective
       sodipodi:type="inkscape:persp3d"
       inkscape:vp_x="0 : 186.02362 : 1"
       inkscape:vp_y="0 : 1000 : 0"
       inkscape:vp_z="524.40942 : 186.02362 : 1"
       inkscape:persp3d-origin="262.20471 : 124.01575 : 1"
       id="perspective3797" />
    <linearGradient
       inkscape:collect="always"
       xlink:href="#linearGradient5069"
       id="linearGradient5067"
       x1="282.15878"
       y1="812.07483"
       x2="281.41245"
       y2="860.00507"
       gradientUnits="userSpaceOnUse"
       spreadMethod="reflect"
       gradientTransform="translate(-97.821824,-440.28552)" />
    <linearGradient
       inkscape:collect="always"
       xlink:href="#linearGradient5235"
       id="linearGradient5241"
       x1="283.24689"
       y1="174.57458"
       x2="283.24689"
       y2="179.57178"
       gradientUnits="userSpaceOnUse"
       spreadMethod="reflect"
       gradientTransform="matrix(1.0086814,0,0,1.303135,-102.02236,185.71328)" />
    <marker
       inkscape:stockid="Arrow1Mstart"
       orient="auto"
       refY="0"
       refX="0"
       id="Arrow1Mstart-1"
       style="overflow:visible">
      <path
         inkscape:connector-curvature="0"
         id="path3974-7"
         d="M 0,0 5,-5 -12.5,0 5,5 0,0 z"
         style="fill-rule:evenodd;stroke:#000000;stroke-width:1pt"
         transform="matrix(0.4,0,0,0.4,4,0)" />
    </marker>
    <marker
       inkscape:stockid="Arrow1Mend"
       orient="auto"
       refY="0"
       refX="0"
       id="Arrow1Mend-4"
       style="overflow:visible">
      <path
         inkscape:connector-curvature="0"
         id="path3977-0"
         d="M 0,0 5,-5 -12.5,0 5,5 0,0 z"
         style="fill-rule:evenodd;stroke:#000000;stroke-width:1pt"
         transform="matrix(-0.4,0,0,-0.4,-4,0)" />
    </marker>
    <marker
       inkscape:stockid="Arrow1Mstart"
       orient="auto"
       refY="0"
       refX="0"
       id="Arrow1Mstart-9"
       style="overflow:visible">
      <path
         inkscape:connector-curvature="0"
         id="path3974-4"
         d="M 0,0 5,-5 -12.5,0 5,5 0,0 z"
         style="fill-rule:evenodd;stroke:#000000;stroke-width:1pt"
         transform="matrix(0.4,0,0,0.4,4,0)" />
    </marker>
    <marker
       inkscape:stockid="Arrow1Mend"
       orient="auto"
       refY="0"
       refX="0"
       id="Arrow1Mend-8"
       style="overflow:visible">
      <path
         inkscape:connector-curvature="0"
         id="path3977-8"
         d="M 0,0 5,-5 -12.5,0 5,5 0,0 z"
         style="fill-rule:evenodd;stroke:#000000;stroke-width:1pt"
         transform="matrix(-0.4,0,0,-0.4,-4,0)" />
    </marker>
    <marker
       inkscape:stockid="Arrow1Mstart"
       orient="auto"
       refY="0"
       refX="0"
       id="Arrow1Mstart-8"
       style="overflow:visible">
      <path
         inkscape:connector-curvature="0"
         id="path3974-9"
         d="M 0,0 5,-5 -12.5,0 5,5 0,0 z"
         style="fill-rule:evenodd;stroke:#000000;stroke-width:1pt"
         transform="matrix(0.4,0,0,0.4,4,0)" />
    </marker>
    <marker
       inkscape:stockid="Arrow1Mend"
       orient="auto"
       refY="0"
       refX="0"
       id="Arrow1Mend-2"
       style="overflow:visible">
      <path
         inkscape:connector-curvature="0"
         id="path3977-7"
         d="M 0,0 5,-5 -12.5,0 5,5 0,0 z"
         style="fill-rule:evenodd;stroke:#000000;stroke-width:1pt"
         transform="matrix(-0.4,0,0,-0.4,-4,0)" />
    </marker>
  </defs>
  <sodipodi:namedview
     id="base"
     pagecolor="#ffffff"
     bordercolor="#666666"
     borderopacity="1.0"
     inkscape:pageopacity="0.0"
     inkscape:pageshadow="2"
     inkscape:zoom="2.8"
     inkscape:cx="335.43379"
     inkscape:cy="208.86504"
     inkscape:document-units="mm"
     inkscape:current-layer="layer1"
     showgrid="false"
     units="mm"
     showborder="true"
     inkscape:showpageshadow="false"
     inkscape:window-width="1680"
     inkscape:window-height="989"
     inkscape:window-x="-9"
     inkscape:window-y="-9"
     inkscape:window-maximized="1"
     inkscape:snap-bbox="true"
     inkscape:snap-global="true"
     inkscape:object-paths="true"
     inkscape:snap-intersection-paths="true"
     inkscape:object-nodes="true"
     inkscape:snap-smooth-nodes="true"
     inkscape:snap-midpoints="true"
     inkscape:snap-object-midpoints="true"
     inkscape:snap-center="true"
     inkscape:snap-bbox-edge-midpoints="true"
     inkscape:bbox-nodes="true"
     inkscape:bbox-paths="true"
     inkscape:snap-bbox-midpoints="true"
     inkscape:snap-nodes="true"
     inkscape:snap-page="false" />
  <metadata
     id="metadata7">
    <rdf:RDF>
      <cc:Work
         rdf:about="">
        <dc:format>image/svg+xml</dc:format>
        <dc:type
           rdf:resource="http://purl.org/dc/dcmitype/StillImage" />
        <dc:title />
      </cc:Work>
    </rdf:RDF>
  </metadata>
  <g
     inkscape:label="1. réteg"
     inkscape:groupmode="layer"
     id="layer1"
     transform="translate(0,-680.31493)">
    <path
       transform="matrix(0,-1,1,0,95.128123,1114.4745)"
       sodipodi:type="arc"
       style="fill:none;stroke:#000000;stroke-width:1.77165354;stroke-linecap:square;stroke-linejoin:miter;stroke-miterlimit:4;stroke-opacity:1;stroke-dasharray:none;stroke-dashoffset:0"
       id="path3002"
       sodipodi:cx="249.25514"
       sodipodi:cy="159.15759"
       sodipodi:rx="19.950512"
       sodipodi:ry="19.950512"
       d="m 269.20565,159.15759 c 0,11.01837 -8.93214,19.95051 -19.95051,19.95051 -11.01836,0 -19.95051,-8.93214 -19.95051,-19.95051 0,-11.01836 8.93215,-19.95051 19.95051,-19.95051 11.01837,0 19.95051,8.93215 19.95051,19.95051 z" />
    <path
       style="fill:none;stroke:#000000;stroke-width:1.77165354;stroke-linecap:round;stroke-linejoin:miter;stroke-opacity:1;stroke-miterlimit:4;stroke-dasharray:none"
       d="m 254.28571,845.26881 8.92857,15.46474"
       id="path6152"
       inkscape:connector-curvature="0" />
    <path
       inkscape:connector-curvature="0"
       id="path6154"
       d="m 254.28571,845.26881 -8.92857,15.46474"
       style="fill:none;stroke:#000000;stroke-width:1.77165354;stroke-linecap:round;stroke-linejoin:miter;stroke-opacity:1;stroke-miterlimit:4;stroke-dasharray:none" />
    <path
       style="fill:none;stroke:#000000;stroke-width:1.77165354;stroke-linecap:round;stroke-linejoin:miter;stroke-opacity:1;stroke-miterlimit:4;stroke-dasharray:none"
       d="m 245.35714,860.73355 17.85714,0"
       id="path6156"
       inkscape:connector-curvature="0" />
    <path
       style="fill:none;stroke:#000000;stroke-width:1.77165354;stroke-linecap:round;stroke-linejoin:round;stroke-miterlimit:4;stroke-opacity:1;stroke-dasharray:none;stroke-dashoffset:0"
       d="m 254.29822,860.19323 -7.95711,0 3.93269,-6.81853 c 2.16298,-3.75019 3.96797,-6.81853 4.01108,-6.81853 0.0431,0 1.77316,2.94049 3.84453,6.53443 2.07138,3.59393 3.8471,6.66227 3.94603,6.81853 l 0.17989,0.2841 -7.95711,0 z"
       id="path6158"
       inkscape:connector-curvature="0" />
    <path
       style="fill:none;stroke:#000000;stroke-width:1.77165354;stroke-linecap:round;stroke-linejoin:miter;stroke-miterlimit:4;stroke-opacity:1;stroke-dasharray:none;stroke-dashoffset:0"
       d="m 254.2856,859.30935 -6.31771,0 1.8022,-3.12516 c 2.91429,-5.05362 4.43236,-7.60755 4.52201,-7.60764 0.0461,-4e-5 0.22081,0.24142 0.38813,0.53657 0.16732,0.29515 1.38297,2.38333 2.70144,4.64039 1.31847,2.25706 2.58272,4.43046 2.80943,4.82979 l 0.41222,0.72605 -6.31772,0 z"
       id="path6160"
       inkscape:connector-curvature="0" />
    <path
       style="fill:none;stroke:#000000;stroke-width:1.77165354;stroke-linecap:round;stroke-linejoin:miter;stroke-miterlimit:4;stroke-opacity:1;stroke-dasharray:none;stroke-dashoffset:0"
       d="m 254.27623,858.42546 -4.68196,0 0.34979,-0.61106 c 1.83773,-3.21038 4.27901,-7.34136 4.33918,-7.34248 0.0535,-10e-4 4.02573,6.7503 4.62385,7.85884 0.0281,0.0521 -2.05578,0.0947 -4.63086,0.0947 z"
       id="path6162"
       inkscape:connector-curvature="0" />
    <path
       style="fill:none;stroke:#000000;stroke-width:1.77165354;stroke-linecap:round;stroke-linejoin:miter;stroke-miterlimit:4;stroke-opacity:1;stroke-dasharray:none;stroke-dashoffset:0"
       d="m 254.27301,857.47839 c -1.60489,0.0512 -2.94025,0.0709 -2.96745,0.0437 -0.0712,-0.0712 2.80173,-4.95554 2.94244,-5.00244 0.10045,-0.0335 2.67028,4.15491 2.87232,4.68141 0.0601,0.15652 -0.36749,0.19817 -2.84731,0.27734 z"
       id="path6164"
       inkscape:connector-curvature="0" />
    <path
       style="fill:none;stroke:#000000;stroke-width:1.77165354;stroke-linecap:round;stroke-linejoin:miter;stroke-miterlimit:4;stroke-opacity:1;stroke-dasharray:none;stroke-dashoffset:0"
       d="m 254.27133,856.53143 c -0.69448,0 -1.26269,-0.0336 -1.26269,-0.0747 0,-0.12451 1.19161,-2.07189 1.26779,-2.07189 0.083,0 1.25759,1.9192 1.25759,2.05478 0,0.0505 -0.56821,0.0918 -1.26269,0.0918 z"
       id="path6166"
       inkscape:connector-curvature="0" />
    <path
       style="fill:none;stroke:#000000;stroke-width:1.77165354;stroke-linecap:butt;stroke-linejoin:miter;stroke-opacity:1;stroke-miterlimit:4;stroke-dasharray:none"
       d="m 254.28572,204.85494 0,40.04944"
       id="path3918"
       inkscape:connector-curvature="0"
       transform="translate(0,680.31493)" />
    <rect
       style="fill:none;stroke:#000000;stroke-width:1.77165354;stroke-linecap:square;stroke-linejoin:round;stroke-miterlimit:4;stroke-opacity:1;stroke-dasharray:none;stroke-dashoffset:0"
       id="rect3920"
       width="41.921329"
       height="41.921329"
       x="370.70581"
       y="844.25867" />
    <path
       style="fill:none;stroke:#000000;stroke-width:1.77165354;stroke-linecap:square;stroke-linejoin:miter;stroke-opacity:1;stroke-miterlimit:4;stroke-dasharray:none"
       d="m 254.28573,845.26885 0,-52.01081 137.38075,0"
       id="path3922"
       inkscape:connector-curvature="0" />
    <path
       style="fill:none;stroke:#000000;stroke-width:1.77165354;stroke-linecap:square;stroke-linejoin:miter;stroke-opacity:1;stroke-miterlimit:4;stroke-dasharray:none"
       d="m 391.66648,163.94374 0,-51.00063"
       id="path3924"
       inkscape:connector-curvature="0"
       transform="translate(0,680.31493)" />
    <path
       style="fill:none;stroke:#000000;stroke-width:1.77165354;stroke-linecap:butt;stroke-linejoin:miter;stroke-opacity:1;stroke-miterlimit:4;stroke-dasharray:none"
       d="m 391.66648,205.86507 0,39.03931"
       id="path3928"
       inkscape:connector-curvature="0"
       transform="translate(0,680.31493)" />
    <path
       style="fill:none;stroke:#000000;stroke-width:1.77165353;stroke-linecap:square;stroke-linejoin:miter;stroke-opacity:1;stroke-miterlimit:4;stroke-dasharray:7.08661413,7.08661413;stroke-dashoffset:0"
       d="m 391.66648,818.75835 -42.38076,0 0,46.46098"
       id="path3930"
       inkscape:connector-curvature="0" />
    <path
       style="fill:none;stroke:#000000;stroke-width:1.77165353;stroke-linecap:butt;stroke-linejoin:miter;stroke-opacity:1;stroke-miterlimit:4;stroke-dasharray:7.08661413,7.08661413;stroke-dashoffset:0"
       d="m 370.70581,184.9044 -21.42009,0"
       id="path3932"
       inkscape:connector-curvature="0"
       transform="translate(0,680.31493)" />
    <path
       style="fill:none;stroke:#000000;stroke-width:1.77165354;stroke-linecap:butt;stroke-linejoin:miter;stroke-opacity:1;marker-end:url(#Arrow1Mend-2);marker-mid:none;stroke-miterlimit:4;stroke-dasharray:none"
       d="m 394.46457,173.04719 -15.27856,0 0,18.94036"
       id="path3934"
       inkscape:connector-curvature="0"
       transform="translate(0,680.31493)" />
    <path
       style="fill:none;stroke:#000000;stroke-width:1.77165354;stroke-linecap:butt;stroke-linejoin:miter;stroke-opacity:1;stroke-miterlimit:4;stroke-dasharray:none"
       d="m 412.62714,184.9044 5.85501,-10.80359"
       id="path5024"
       inkscape:connector-curvature="0"
       transform="translate(0,680.31493)" />
    <path
       style="fill:none;stroke:#000000;stroke-width:1.77165354;stroke-linecap:round;stroke-linejoin:miter;stroke-opacity:1;stroke-miterlimit:4;stroke-dasharray:none"
       d="m 418.48215,174.10081 4.46428,21.33929 5.71429,-21.33929"
       id="path5026"
       inkscape:connector-curvature="0"
       transform="translate(0,680.31493)" />
    <path
       style="fill:none;stroke:#000000;stroke-width:1.77165354;stroke-linecap:round;stroke-linejoin:miter;stroke-opacity:1;stroke-miterlimit:4;stroke-dasharray:none"
       d="m 428.66072,854.41574 4.46428,21.33929 5.71429,-21.33929"
       id="path5030"
       inkscape:connector-curvature="0" />
    <path
       inkscape:connector-curvature="0"
       id="path5032"
       d="m 438.83929,854.41574 4.46428,21.33929 5.71429,-21.33929"
       style="fill:none;stroke:#000000;stroke-width:1.77165354;stroke-linecap:round;stroke-linejoin:miter;stroke-opacity:1;stroke-miterlimit:4;stroke-dasharray:none" />
    <path
       style="fill:none;stroke:#000000;stroke-width:1.77165354;stroke-linecap:round;stroke-linejoin:miter;stroke-opacity:1;stroke-miterlimit:4;stroke-dasharray:none"
       d="m 449.01786,854.41574 4.46427,21.33929 5.71429,-21.33929"
       id="path5034"
       inkscape:connector-curvature="0" />
    <path
       transform="translate(0,680.31493)"
       inkscape:connector-curvature="0"
       id="path5036"
       d="m 412.62714,184.9044 5.85501,-10.80359"
       style="fill:none;stroke:#000000;stroke-width:1.77165354;stroke-linecap:butt;stroke-linejoin:miter;stroke-opacity:1;stroke-miterlimit:4;stroke-dasharray:none" />
    <path
       style="fill:none;stroke:#000000;stroke-width:1.77165354;stroke-linecap:butt;stroke-linejoin:miter;stroke-opacity:1;stroke-miterlimit:4;stroke-dasharray:none"
       d="m 459.19642,174.10081 4.55358,10.46598 6.96429,0"
       id="path5042"
       inkscape:connector-curvature="0"
       transform="translate(0,680.31493)" />
    <path
       style="fill:none;stroke:#000000;stroke-width:1.77165353;stroke-linecap:square;stroke-linejoin:miter;stroke-miterlimit:4;stroke-opacity:1;stroke-dasharray:none"
       d="m 237.89092,916.49665 0,23.73859 169.70563,0"
       id="path5078"
       inkscape:connector-curvature="0" />
    <path
       style="fill:none;stroke:#000000;stroke-width:1.77165353;stroke-linecap:butt;stroke-linejoin:miter;stroke-miterlimit:4;stroke-opacity:1;stroke-dasharray:none"
       d="m 407.59655,940.40874 0,-23.91211"
       id="path5080"
       inkscape:connector-curvature="0" />
    <path
       style="fill:none;stroke:#000000;stroke-width:1.77165365;stroke-linecap:butt;stroke-linejoin:miter;stroke-miterlimit:4;stroke-opacity:1;stroke-dasharray:none;marker-end:url(#Arrow1Mend-2)"
       d="m 432.63343,892.69531 14.07605,-53.98969"
       id="path5084"
       inkscape:connector-curvature="0" />
  </g>
</svg>
