<?xml version="1.0" encoding="UTF-8" standalone="no"?>
<!-- Created with Inkscape (http://www.inkscape.org/) -->

<svg
   xmlns:dc="http://purl.org/dc/elements/1.1/"
   xmlns:cc="http://creativecommons.org/ns#"
   xmlns:rdf="http://www.w3.org/1999/02/22-rdf-syntax-ns#"
   xmlns:svg="http://www.w3.org/2000/svg"
   xmlns="http://www.w3.org/2000/svg"
   xmlns:sodipodi="http://sodipodi.sourceforge.net/DTD/sodipodi-0.dtd"
   xmlns:inkscape="http://www.inkscape.org/namespaces/inkscape"
   width="283.46457"
   height="212.59842"
   id="svg2"
   version="1.1"
   inkscape:version="0.48.2 r9819"
   sodipodi:docname="PS_OperatingPoint_Affinity.svg"
   inkscape:export-filename="D:\lecture_notes_2013_04_02\Problem_solving\figs\PS_OperatingPoint_Affinity.png"
   inkscape:export-xdpi="300"
   inkscape:export-ydpi="300">
  <defs
     id="defs4">
    <marker
       inkscape:stockid="Arrow1Lstart"
       orient="auto"
       refY="0.0"
       refX="0.0"
       id="Arrow1Lstart"
       style="overflow:visible">
      <path
         id="path3895"
         d="M 0.0,0.0 L 5.0,-5.0 L -12.5,0.0 L 5.0,5.0 L 0.0,0.0 z "
         style="fill-rule:evenodd;stroke:#000000;stroke-width:1.0pt;marker-start:none"
         transform="scale(0.8) translate(12.5,0)" />
    </marker>
    <marker
       inkscape:stockid="Arrow1Lend"
       orient="auto"
       refY="0.0"
       refX="0.0"
       id="Arrow1Lend"
       style="overflow:visible;">
      <path
         id="path3898"
         d="M 0.0,0.0 L 5.0,-5.0 L -12.5,0.0 L 5.0,5.0 L 0.0,0.0 z "
         style="fill-rule:evenodd;stroke:#000000;stroke-width:1.0pt;marker-start:none;"
         transform="scale(0.8) rotate(180) translate(12.5,0)" />
    </marker>
  </defs>
  <sodipodi:namedview
     id="base"
     pagecolor="#ffffff"
     bordercolor="#666666"
     borderopacity="1.0"
     inkscape:pageopacity="0.0"
     inkscape:pageshadow="2"
     inkscape:zoom="1.979899"
     inkscape:cx="149.63471"
     inkscape:cy="191.76496"
     inkscape:document-units="cm"
     inkscape:current-layer="layer1"
     showgrid="false"
     units="cm"
     inkscape:object-paths="true"
     inkscape:snap-intersection-paths="true"
     inkscape:object-nodes="true"
     inkscape:window-width="1280"
     inkscape:window-height="962"
     inkscape:window-x="1272"
     inkscape:window-y="-8"
     inkscape:window-maximized="1" />
  <metadata
     id="metadata7">
    <rdf:RDF>
      <cc:Work
         rdf:about="">
        <dc:format>image/svg+xml</dc:format>
        <dc:type
           rdf:resource="http://purl.org/dc/dcmitype/StillImage" />
        <dc:title></dc:title>
      </cc:Work>
    </rdf:RDF>
  </metadata>
  <g
     inkscape:label="1. réteg"
     inkscape:groupmode="layer"
     id="layer1"
     transform="translate(0,-839.76245)">
    <path
       inkscape:connector-curvature="0"
       style="fill:none;stroke:#000000;stroke-width:0.70866144;stroke-linecap:round;stroke-linejoin:miter;stroke-miterlimit:4;stroke-dasharray:none"
       d="m 193.80294,935.17901 c 0,1.80985 -1.44144,3.28699 -3.25281,3.28699 -1.81138,0 -3.25326,-1.47714 -3.25326,-3.28699 0,-1.77293 1.44188,-3.25052 3.25326,-3.25052 1.81137,0 3.25281,1.47759 3.25281,3.25052"
       id="path2991" />
    <path
       inkscape:connector-curvature="0"
       style="fill:none;stroke:#000000;stroke-width:0.70866144;stroke-linecap:round;stroke-linejoin:miter;stroke-miterlimit:4;stroke-dasharray:none"
       d="m 148.70379,900.31156 c 0,1.77292 -1.47883,3.25051 -3.25326,3.25051 -1.81137,0 -3.29021,-1.47759 -3.29021,-3.25051 0,-1.80985 1.47884,-3.287 3.29021,-3.287 1.77443,0 3.25326,1.47715 3.25326,3.287"
       id="path2993" />
    <path
       inkscape:connector-curvature="0"
       style="fill:none;stroke:#000000;stroke-width:0.70866144;stroke-linecap:round;stroke-linejoin:miter;stroke-miterlimit:4;stroke-dasharray:none"
       d="m 116.69024,977.35924 c 0,1.80985 -1.47839,3.28744 -3.28976,3.28744 -1.77442,0 -3.25326,-1.47759 -3.25326,-3.28744 0,-1.80984 1.47884,-3.25007 3.25326,-3.25007 1.81137,0 3.28976,1.44023 3.28976,3.25007"
       id="path2995" />
    <path
       inkscape:connector-curvature="0"
       style="fill:none;stroke:#000000;stroke-width:0.35433070999999999;stroke-linecap:round;stroke-linejoin:miter;stroke-miterlimit:4;stroke-dasharray:none;marker-start:none;marker-end:none"
       d="m 23.201286,843.69613 0,190.39637 246.309864,0"
       id="path2997" />
    <path
       inkscape:connector-curvature="0"
       style="fill:none;stroke:#000000;stroke-width:0.35433071;stroke-linecap:round;stroke-linejoin:miter;stroke-miterlimit:4;stroke-dasharray:none;marker-end:url(#Arrow1Lend)"
       d="M 59.393026,849.75183 44.508921,871.36535"
       id="path3003" />
    <path
       inkscape:connector-curvature="0"
       style="fill:none;stroke:#000000;stroke-width:0.35433071;stroke-linecap:round;stroke-linejoin:miter;stroke-miterlimit:4;stroke-dasharray:none;marker-end:url(#Arrow1Lend)"
       d="M 231.6546,926.03804 221.22218,906.00008"
       id="path3007" />
    <path
       inkscape:connector-curvature="0"
       style="fill:none;stroke:#000000;stroke-width:0.35433072;stroke-linecap:round;stroke-linejoin:miter;stroke-miterlimit:4;stroke-dasharray:2.12598426, 2.12598426;stroke-dashoffset:0"
       d="m 190.55013,937.61668 0,100.01132"
       id="path3011" />
    <path
       inkscape:connector-curvature="0"
       style="fill:none;stroke:#000000;stroke-width:0.35433072;stroke-linecap:round;stroke-linejoin:miter;stroke-miterlimit:4;stroke-dasharray:2.12598426, 2.12598426;stroke-dashoffset:0"
       d="m 143.97169,900.31157 0,137.31643"
       id="path3013" />
    <path
       inkscape:connector-curvature="0"
       style="fill:none;stroke:#000000;stroke-width:0.35433072;stroke-linecap:round;stroke-linejoin:miter;stroke-miterlimit:4;stroke-dasharray:2.12598426, 2.12598426;stroke-dashoffset:0"
       d="m 113.40048,977.91717 0,59.71083"
       id="path3015" />
    <path
       inkscape:connector-curvature="0"
       style="fill:none;stroke:#000000;stroke-width:0.35433071;stroke-linecap:round;stroke-linejoin:miter;stroke-miterlimit:4;stroke-dasharray:none;marker-end:url(#Arrow1Lend)"
       d="M 52.737938,932.44578 41.388919,963.61927"
       id="path3017" />
    <path
       inkscape:connector-curvature="0"
       style="fill:none;stroke:#2c2c2b;stroke-width:0.70866144;stroke-linecap:round;stroke-linejoin:miter;stroke-miterlimit:4;stroke-dasharray:none"
       d="m 23.201286,872.68393 0.03695,0 0.110846,0 0.221692,0 0.332983,0 0.480332,0 0.628572,0 0.813315,0 0.998059,0.0369 1.145853,0 1.294092,0.0369 1.441443,0.0369 1.589681,0.0369 1.737477,0.0369 1.774425,0.0738 1.848322,0 1.885271,0.0738 1.922219,0.0738 1.92222,0.0738 1.92222,0.0369 1.885716,0.0738 1.848322,0.0743 1.811374,0.11075 1.774425,0.0738 1.700082,0.0738 1.700528,0.11075 1.589682,0.0738 1.552733,0.14767 1.515339,0.0738 1.515785,0.14767 1.404938,0.1112 1.441442,0.14767 1.36799,0.11075 1.367545,0.18459 1.36799,0.14767 1.330596,0.14767 1.331042,0.22195 1.330596,0.18459 1.331041,0.18459 1.367545,0.2215 1.145853,0.18459 1.220195,0.22195 1.182802,0.18459 1.21975,0.2215 1.257144,0.22151 1.21975,0.25886 1.294093,0.25842 1.293648,0.25843 1.293647,0.29578 1.331042,0.29534 1.330596,0.29534 1.404938,0.3327 1.404939,0.33226 1.367545,0.36918 1.478836,0.36962 1.441442,0.36917 1.441887,0.40654 1.515785,0.40609 1.478389,0.40654 1.51578,0.47992 1.51579,0.44346 1.51534,0.47993 1.55273,0.48037 1.55273,0.51684 1.51534,0.48038 1.55274,0.55376 1.55273,0.55421 1.51534,0.5542 1.55273,0.55377 1.55273,0.5542 1.51534,0.59068 1.47884,0.59113 1.47884,0.62804 1.47839,0.59068 1.51578,0.62804 1.44189,0.62804 1.44144,0.6276 1.40494,0.62804 1.44144,0.70188 1.36799,0.62804 1.40449,0.70143 1.36799,0.66496 1.36755,0.70188 1.36799,0.70188 1.36754,0.73879 1.33105,0.73835 1.25669,0.70188 1.2941,0.70188 1.33059,0.73879 1.2941,0.77571 1.29364,0.77527 1.33104,0.81263 1.3306,0.84955 1.36799,0.84954 1.3306,0.84955 1.33059,0.88647 1.40494,0.92338 1.36799,0.92338 1.36755,0.9603 1.40493,0.9603 1.44145,1.03413 1.40494,0.99766 1.40449,1.03414 1.40494,1.07105 1.44144,1.03414 1.40494,1.07105 1.44189,1.10797 1.44144,1.14533 1.40494,1.10797 1.40449,1.14488 1.40494,1.14489 1.40449,1.14533 1.36799,1.14489 1.4045,1.1818 1.33104,1.14534 1.33059,1.1818 1.33104,1.18181 1.29365,1.1818 1.29409,1.14533 1.21975,1.18181 1.2567,1.10797 1.2202,1.18224 1.1828,1.14489 1.1828,1.10797 1.1463,1.14489 1.1089,1.10841 1.10891,1.10797 1.07195,1.14489 1.03501,1.10797 1.03545,1.07105 0.99806,1.0715 1.03501,1.10797 0.99806,1.07105 0.96111,1.10797 1.035,1.18225 0.99806,1.14488 1.03501,1.21873 0.9985,1.1818 0.99806,1.21917 0.99806,1.25564 0.99806,1.21916 0.96111,1.21873 0.96111,1.25563 0.96111,1.25609 0.99806,1.29256 0.92416,1.293 0.96111,1.29255 0.96111,1.29256 0.92416,1.32992 0.92416,1.32947 0.92416,1.32992 0.88721,1.32948 0.92416,1.32992 0.88722,1.32947 0.85026,1.293 0.88721,1.32948 0.85027,1.32992 0.81331,1.29255 0.81332,1.29256 0.77636,1.293 0.77637,1.25564 0.73897,1.21917 0.73942,1.25564 0.73942,1.21872 0.66552,1.14533 0.66552,1.18181 0.66508,1.1449 0.59162,1.108 0.62857,1.1084 0.62813,1.071 0.55467,1.0342 0.51773,1.0341 0.55423,0.9972 0.51772,0.9603 0.48034,0.9603 0.51772,0.9234 0.48034,0.9234 0.44382,0.9234 0.62813,1.1822 0.55468,1.2187 0.59162,1.1449 0.59118,1.1823 0.55467,1.1448 0.55468,1.1449 0.51728,1.1449 0.51772,1.2192 0.51729,1.1449 0.55467,1.2187 0.55467,1.2561 0.55423,1.2925 0.55468,1.33 0.55423,1.3664 0.59162,1.4037 0.55468,1.3664 0.59118,1.4407 0.59162,1.4033 0.55467,1.4406 0.55423,1.3295 0.51773,1.293 0.44338,1.2187 0.40688,1.108 0.40644,0.9608 0.29559,0.8121 0.25908,0.665 0.22169,0.4804 0.11085,0.3692 0.11085,0.2215 0.0369,0.1107 0.0369,0.074"
       id="path3023" />
    <path
       inkscape:connector-curvature="0"
       style="fill:none;stroke:#000000;stroke-width:0.70866144;stroke-linecap:round;stroke-linejoin:miter;stroke-miterlimit:4;stroke-dasharray:none"
       d="m 23.201286,990.4347 0.03695,0 0.147795,0 0.222137,0 0.369486,0 0.554675,0 0.738973,0 0.850263,-0.037 0.998059,-0.037 1.183247,-0.037 1.293647,-0.037 1.36799,-0.037 1.478391,-0.037 1.515784,-0.037 1.515785,-0.074 1.515339,-0.074 1.515785,-0.074 1.515784,-0.037 1.478391,-0.1107 1.404939,-0.1108 1.441442,-0.037 1.36799,-0.1477 1.293647,-0.1107 1.331042,-0.074 1.293647,-0.1477 1.294093,-0.1112 1.256699,-0.1846 1.293647,-0.1107 1.294093,-0.1477 1.330596,-0.2215 1.36799,-0.185 1.404494,-0.1846 1.035452,-0.18462 1.108904,-0.14767 1.108904,-0.18459 1.145853,-0.18503 1.183247,-0.22151 1.182802,-0.18458 1.256699,-0.22151 1.294092,-0.2215 1.293648,-0.22195 1.294093,-0.25843 1.367544,-0.25842 1.404939,-0.25886 1.404493,-0.29534 1.478836,-0.29534 1.441442,-0.29579 1.515785,-0.33226 1.515784,-0.29534 1.51534,-0.3327 1.589682,-0.36917 1.552733,-0.33226 1.589682,-0.36962 1.626185,-0.36918 1.589682,-0.36962 1.589681,-0.36917 1.589682,-0.36918 1.589682,-0.44345 1.626185,-0.36917 1.589682,-0.40654 1.552733,-0.40609 1.589238,-0.36962 1.55273,-0.44301 1.51578,-0.40654 1.51579,-0.44301 1.47839,-0.40654 1.47883,-0.40609 1.4784,-0.44301 1.44188,-0.40654 1.44189,-0.40609 1.40449,-0.44345 1.44189,-0.44301 1.36755,-0.40654 1.40493,-0.47993 1.29365,-0.40654 1.33104,-0.44301 1.3306,-0.44345 1.29409,-0.44301 1.29365,-0.48037 1.36799,-0.44301 1.3306,-0.48037 1.36799,-0.51685 1.36754,-0.51729 1.36799,-0.51729 1.40449,-0.51684 1.36799,-0.59113 1.4045,-0.55376 1.44188,-0.59112 1.4045,-0.59113 1.44189,-0.6276 1.44188,-0.66496 1.44144,-0.62804 1.47884,-0.66451 1.44144,-0.66496 1.44189,-0.66496 1.47884,-0.7388 1.40449,-0.70187 1.47883,-0.73835 1.44145,-0.7388 1.40494,-0.73879 1.44188,-0.7388 1.4045,-0.77571 1.36799,-0.77571 1.40449,-0.77527 1.36799,-0.77571 1.3306,-0.81263 1.33104,-0.81263 1.33059,-0.81263 1.29365,-0.81263 1.29409,-0.81263 1.2567,-0.77571 1.25715,-0.84955 1.21975,-0.8491 1.2567,-0.84955 1.22019,-0.81263 1.1828,-0.88646 1.21975,-0.88647 1.2202,-0.84954 1.07195,-0.84955 1.10891,-0.84955 1.1089,-0.84954 1.10935,-0.88647 1.10891,-0.92338 1.1089,-0.88647 1.1828,-0.96029 1.10935,-0.99722 1.21975,-1.03414 1.1828,-1.03413 1.25715,-1.0715 1.2567,-1.1818 1.29364,-1.14489 1.36799,-1.25608 1.40494,-1.29256 1.4045,-1.29256 1.47883,-1.40375 1.51534,-1.44067 1.55273,-1.51406 1.58969,-1.55143 1.62663,-1.55142 1.70008,-1.66218 1.70053,-1.69865 1.73747,-1.73601 1.77443,-1.73601 1.77442,-1.77293 1.81138,-1.77293 1.73747,-1.77293 1.77443,-1.77293 1.70053,-1.73601 1.70052,-1.66218 1.58969,-1.62526 1.55228,-1.55097 1.40494,-1.47759 1.3306,-1.3664 1.22019,-1.21916 1.10891,-1.10797 0.96111,-0.99722 0.81331,-0.84955 0.70247,-0.70187 0.55423,-0.59113 0.48078,-0.44301 0.29559,-0.36917 0.22169,-0.22195 0.18519,-0.14767 0.0739,-0.0738 0,-0.0369"
       id="path3025" />
    <path
       inkscape:connector-curvature="0"
       style="fill:none;stroke:#e21c2a;stroke-width:0.70866144;stroke-linecap:round;stroke-linejoin:miter;stroke-miterlimit:4;stroke-dasharray:none"
       d="m 23.201286,1034.0925 0.03695,0 0.184743,0 0.296035,-0.037 0.406435,-0.037 0.591623,-0.037 0.739418,-0.074 0.849819,-0.074 0.998503,-0.1107 1.071956,-0.1108 1.071956,-0.1481 1.108904,-0.1477 1.145853,-0.1845 1.072401,-0.1477 1.108904,-0.2215 1.071956,-0.222 1.071956,-0.2584 1.071955,-0.2584 1.035452,-0.2954 1.071956,-0.3327 1.071956,-0.3691 1.145853,-0.4066 1.182801,-0.4061 1.220196,-0.5173 0.776366,-0.2953 0.850264,-0.3692 0.813316,-0.3696 0.887212,-0.3692 0.924161,-0.4065 0.96111,-0.4061 0.96111,-0.4434 0.998058,-0.48 1.035007,-0.4803 1.071956,-0.5169 1.108904,-0.5542 1.10935,-0.5911 1.145853,-0.5907 1.182801,-0.5911 1.219751,-0.665 1.220195,-0.6645 1.256699,-0.7388 1.257144,-0.7019 1.256699,-0.7018 1.293647,-0.7758 1.294093,-0.7752 1.293648,-0.7757 1.331041,-0.8127 1.293647,-0.8495 1.294093,-0.8126 1.293648,-0.8496 1.256698,-0.8495 1.294093,-0.8865 1.256699,-0.8496 1.257144,-0.8864 1.21975,-0.8865 1.219751,-0.8864 1.183246,-0.8865 1.182802,-0.9234 1.182802,-0.9234 1.183246,-0.9603 1.108905,-0.9234 1.182801,-0.9233 0.96111,-0.8496 0.96111,-0.8864 0.998058,-0.8496 0.998059,-0.8865 0.998058,-0.9233 0.998504,-0.9603 0.96111,-0.9234 0.998058,-0.9972 1.035007,-0.9973 0.998058,-1.0341 1.035007,-1.071 1.035008,-1.0715 1.035006,-1.1449 1.03545,-1.108 1.03501,-1.1818 1.035,-1.18226 1.03501,-1.21872 1.03501,-1.25564 1.03501,-1.25608 1.035,-1.25564 1.03545,-1.293 0.99806,-1.32948 1.03501,-1.32947 1.03501,-1.32992 0.96111,-1.36639 0.96111,-1.36684 0.96111,-1.36684 0.99805,-1.4033 0.92417,-1.40376 0.88721,-1.36639 0.92416,-1.40376 0.88721,-1.4033 0.81332,-1.40376 0.88721,-1.44023 0.81331,-1.36683 0.81332,-1.40331 0.77637,-1.40376 0.77636,-1.40331 0.73898,-1.40375 0.70247,-1.40375 0.70246,-1.40331 0.73942,-1.40376 0.66552,-1.44022 0.66508,-1.40376 0.59162,-1.29255 0.59163,-1.29301 0.55423,-1.29255 0.55467,-1.32992 0.55423,-1.32948 0.55467,-1.36683 0.55468,-1.40331 0.55423,-1.44067 0.55467,-1.47715 0.55423,-1.51451 0.55468,-1.55142 0.51772,-1.62526 0.59118,-1.66173 0.55468,-1.73601 0.59162,-1.77293 0.59118,-1.84677 0.55467,-1.88368 0.62858,-1.95796 0.59117,-2.06827 0.66552,-2.10518 0.62858,-2.17947 0.62812,-2.21594 0.66552,-2.29022 0.66552,-2.36361 0.66552,-2.40097 0.70203,-2.43789 0.62857,-2.40052 0.70247,-2.51173 0.66552,-2.43788 0.62813,-2.43745 0.66552,-2.36405 0.62857,-2.36406 0.59118,-2.28977 0.59162,-2.1421 0.55468,-2.06872 0.48033,-1.9206 0.44383,-1.77293 0.44338,-1.62525 0.36949,-1.44023 0.33298,-1.25609 0.29559,-1.10797 0.22169,-0.88646 0.18519,-0.77571 0.14779,-0.55376 0.11085,-0.48038 0.0739,-0.25842 0.0739,-0.2215 0,-0.0738 0,-0.0369"
       id="path3027" />
    <path
       inkscape:connector-curvature="0"
       style="fill:none;stroke:#000000;stroke-width:0.70866144;stroke-linecap:round;stroke-linejoin:miter;stroke-miterlimit:4;stroke-dasharray:none"
       d="m 24.643173,965.7249 0.0739,0 0.147795,0 0.332537,0 0.443829,0 0.591178,0 0.776367,0 0.887212,0 0.998059,0.0369 1.035007,0 1.109349,0 1.145853,0 1.071956,0.0369 1.071956,0 1.035007,0 0.998503,0.0369 0.96111,0 0.924161,0.0369 0.96111,0 0.887213,0.0369 0.924161,0 0.887212,0 0.96111,0.0369 0.96111,0.0369 0.776366,0 0.813316,0.0369 0.81287,0.0369 0.887212,0.0369 0.887213,0.0369 0.924161,0.0369 0.961555,0 0.96111,0.0369 1.035007,0.0738 1.071955,0.0369 1.071956,0.0738 1.145853,0.0369 1.109349,0.0369 1.145853,0.1112 1.182802,0.0738 1.182802,0.0369 1.183246,0.0738 1.219751,0.11076 1.182801,0.0738 1.183247,0.0738 1.21975,0.11075 1.182802,0.0738 1.183247,0.14767 1.145853,0.1112 1.182801,0.0738 1.10935,0.14767 1.145853,0.0738 1.108904,0.14767 1.108904,0.11075 1.108905,0.14767 0.961555,0.11075 0.998058,0.14812 1.035007,0.11075 0.998059,0.14767 1.035007,0.11075 1.035007,0.18459 1.035007,0.14767 1.071955,0.18503 1.10935,0.18459 1.108904,0.18459 1.108905,0.18459 1.145853,0.2215 1.183246,0.22195 1.145853,0.25842 1.182802,0.25843 1.183247,0.25886 1.182801,0.25843 1.219751,0.25842 1.183246,0.29534 1.182802,0.29578 1.182802,0.29534 1.145851,0.33226 1.18324,0.3327 1.14586,0.29534 1.14585,0.33226 1.1463,0.36962 1.07195,0.29534 1.10891,0.36962 1.1089,0.40609 1.07196,0.33226 1.0724,0.40654 1.03501,0.36917 1.035,0.40654 1.03501,0.40609 1.03501,0.40654 1.035,0.44301 1.07196,0.44345 1.03545,0.44301 1.10891,0.48037 1.07195,0.51685 1.10891,0.51729 1.1089,0.51684 1.1463,0.55421 1.14585,0.59112 1.10891,0.59068 1.1828,0.59113 1.1463,0.62804 1.1828,0.6276 1.14585,0.66496 1.18325,0.66496 1.14585,0.66496 1.1828,0.70143 1.10891,0.66496 1.10935,0.70185 1.14585,0.7019 1.03501,0.6645 1.07195,0.7388 1.03501,0.665 1.03501,0.6649 0.9985,0.7015 0.96111,0.6649 0.92416,0.7019 0.92416,0.665 0.85027,0.6276 0.88721,0.6649 0.81331,0.6281 0.81287,0.6649 0.81332,0.6645 0.81331,0.7019 0.81332,0.665 0.77637,0.7019 0.77636,0.7383 0.81332,0.7019 0.77636,0.7757 0.77593,0.7757 0.81331,0.8126 0.81332,0.8127 0.85026,0.8864 0.81331,0.9234 0.88722,0.9603 0.88721,1.0341 0.96111,1.0342 0.92416,1.071 0.96111,1.1449 0.99806,1.1453 0.96111,1.1449 0.96111,1.1818 0.92416,1.0711 0.88721,1.1084 0.81332,0.9972 0.73942,0.9234 0.66552,0.8126 0.55423,0.7015 0.48077,0.5542 0.33254,0.4434 0.22214,0.2954 0.18474,0.1846 0.0739,0.1476 0.037,0.037"
       id="path3029" />
    <text
       xml:space="preserve"
       style="font-size:11px;font-style:normal;font-variant:normal;font-weight:normal;font-stretch:normal;text-align:start;line-height:125%;letter-spacing:0px;word-spacing:0px;writing-mode:lr-tb;text-anchor:start;fill:#000000;fill-opacity:1;stroke:none;font-family:Times New Roman;-inkscape-font-specification:'Times New Roman,'"
       x="259.60922"
       y="1047.432"
       id="text4704"
       sodipodi:linespacing="125%"><tspan
         sodipodi:role="line"
         id="tspan4706"
         x="259.60922"
         y="1047.432">Q</tspan></text>
    <text
       xml:space="preserve"
       style="font-size:11px;font-style:normal;font-variant:normal;font-weight:normal;font-stretch:normal;text-align:start;line-height:125%;letter-spacing:0px;word-spacing:0px;writing-mode:lr-tb;text-anchor:start;fill:#000000;fill-opacity:1;stroke:none;font-family:Times New Roman;-inkscape-font-specification:'Times New Roman,'"
       x="7.0710669"
       y="852.9776"
       id="text4708"
       sodipodi:linespacing="125%"><tspan
         sodipodi:role="line"
         id="tspan4710"
         x="7.0710669"
         y="852.9776">H</tspan></text>
    <text
       xml:space="preserve"
       style="font-size:11px;font-style:normal;font-variant:normal;font-weight:normal;font-stretch:normal;text-align:start;line-height:125%;letter-spacing:0px;word-spacing:0px;writing-mode:lr-tb;text-anchor:start;fill:#000000;fill-opacity:1;stroke:none;font-family:Times New Roman;-inkscape-font-specification:'Times New Roman,'"
       x="61.619301"
       y="851.46234"
       id="text4712"
       sodipodi:linespacing="125%"><tspan
         sodipodi:role="line"
         id="tspan4714"
         x="61.619301"
         y="851.46234">pump head</tspan><tspan
         sodipodi:role="line"
         x="61.619301"
         y="865.21234"
         id="tspan4724">@n = 1470 rpm</tspan></text>
    <text
       xml:space="preserve"
       style="font-size:11px;font-style:normal;font-variant:normal;font-weight:normal;font-stretch:normal;text-align:start;line-height:125%;letter-spacing:0px;word-spacing:0px;writing-mode:lr-tb;text-anchor:start;fill:#000000;fill-opacity:1;stroke:none;font-family:Times New Roman;-inkscape-font-specification:'Times New Roman,'"
       x="56.063457"
       y="931.76947"
       id="text4716"
       sodipodi:linespacing="125%"><tspan
         sodipodi:role="line"
         id="tspan4718"
         x="56.063457"
         y="931.76947">n = ? rpm</tspan></text>
    <text
       xml:space="preserve"
       style="font-size:11px;font-style:normal;font-variant:normal;font-weight:normal;font-stretch:normal;text-align:start;line-height:125%;letter-spacing:0px;word-spacing:0px;writing-mode:lr-tb;text-anchor:start;fill:#000000;fill-opacity:1;stroke:none;font-family:Times New Roman;-inkscape-font-specification:'Times New Roman,'"
       x="227.28432"
       y="821.15778"
       id="text4720"
       sodipodi:linespacing="125%"><tspan
         sodipodi:role="line"
         id="tspan4722"
         x="227.28432"
         y="821.15778" /></text>
    <text
       xml:space="preserve"
       style="font-size:11px;font-style:normal;font-variant:normal;font-weight:normal;font-stretch:normal;text-align:start;line-height:125%;letter-spacing:0px;word-spacing:0px;writing-mode:lr-tb;text-anchor:start;fill:#000000;fill-opacity:1;stroke:none;font-family:Times New Roman;-inkscape-font-specification:'Times New Roman,'"
       x="233.85031"
       y="928.73901"
       id="text4726"
       sodipodi:linespacing="125%"><tspan
         sodipodi:role="line"
         id="tspan4728"
         x="233.85031"
         y="928.73901">pipeline</tspan></text>
    <text
       xml:space="preserve"
       style="font-size:11px;font-style:normal;font-variant:normal;font-weight:normal;font-stretch:normal;text-align:start;line-height:125%;letter-spacing:0px;word-spacing:0px;writing-mode:lr-tb;text-anchor:start;fill:#ff0000;fill-opacity:1;stroke:none;font-family:Times New Roman;-inkscape-font-specification:'Times New Roman,'"
       x="155.56348"
       y="872.17047"
       id="text4730"
       sodipodi:linespacing="125%"><tspan
         sodipodi:role="line"
         id="tspan4732"
         x="155.56348"
         y="872.17047">central parabola</tspan><tspan
         sodipodi:role="line"
         x="155.56348"
         y="885.92047"
         id="tspan4734">curve</tspan></text>
    <text
       sodipodi:linespacing="125%"
       id="text4736"
       y="1047.432"
       x="187.60922"
       style="font-size:11px;font-style:normal;font-variant:normal;font-weight:normal;font-stretch:normal;text-align:start;line-height:125%;letter-spacing:0px;word-spacing:0px;writing-mode:lr-tb;text-anchor:start;fill:#000000;fill-opacity:1;stroke:none;font-family:Times New Roman;-inkscape-font-specification:'Times New Roman,'"
       xml:space="preserve"><tspan
         y="1047.432"
         x="187.60922"
         id="tspan4738"
         sodipodi:role="line">Q</tspan></text>
    <text
       xml:space="preserve"
       style="font-size:11px;font-style:normal;font-variant:normal;font-weight:normal;font-stretch:normal;text-align:start;line-height:125%;letter-spacing:0px;word-spacing:0px;writing-mode:lr-tb;text-anchor:start;fill:#000000;fill-opacity:1;stroke:none;font-family:Times New Roman;-inkscape-font-specification:'Times New Roman,'"
       x="139.60922"
       y="1047.432"
       id="text4740"
       sodipodi:linespacing="125%"><tspan
         sodipodi:role="line"
         id="tspan4742"
         x="139.60922"
         y="1047.432">Q<tspan
   style="font-size:65%;baseline-shift:super"
   id="tspan4748">*</tspan></tspan></text>
    <text
       sodipodi:linespacing="125%"
       id="text4744"
       y="1047.432"
       x="109.60922"
       style="font-size:11px;font-style:normal;font-variant:normal;font-weight:normal;font-stretch:normal;text-align:start;line-height:125%;letter-spacing:0px;word-spacing:0px;writing-mode:lr-tb;text-anchor:start;fill:#000000;fill-opacity:1;stroke:none;font-family:Times New Roman;-inkscape-font-specification:'Times New Roman,'"
       xml:space="preserve"><tspan
         y="1047.432"
         x="109.60922"
         id="tspan4746"
         sodipodi:role="line">Q'</tspan></text>
    <path
       style="fill:none;fill-opacity:1;stroke:#000000;stroke-width:0.70866143999999998;stroke-linecap:round;stroke-linejoin:miter;stroke-miterlimit:4;stroke-opacity:1;stroke-dasharray:none;stroke-dashoffset:0;marker-start:url(#Arrow1Lstart)"
       d="m 269.51115,1034.0925 -6.77946,0"
       id="path5120"
       inkscape:connector-curvature="0" />
    <path
       inkscape:connector-curvature="0"
       id="path5306"
       d="m 23.201286,843.69613 0,6.77946"
       style="fill:none;stroke:#000000;stroke-width:0.70866144;stroke-linecap:round;stroke-linejoin:miter;stroke-miterlimit:4;stroke-opacity:1;stroke-dasharray:none;stroke-dashoffset:0;marker-start:url(#Arrow1Lstart)" />
  </g>
</svg>
